<svg width="69" height="42" viewBox="0 0 69 42" fill="none" xmlns="http://www.w3.org/2000/svg">
<g clip-path="url(#clip0)">
<path d="M16.8787 26.4075H11.2197C10.8959 26.4075 10.6334 26.6636 10.6334 26.9795V28.4883C10.6334 28.8041 10.8959 29.0602 11.2197 29.0602H16.8787C17.2025 29.0602 17.465 28.8041 17.465 28.4883V26.9795C17.465 26.6636 17.2025 26.4075 16.8787 26.4075Z" fill="#D9D9D9"/>
<path d="M23.7101 26.4075H18.0512C17.7273 26.4075 17.4648 26.6636 17.4648 26.9795V28.4883C17.4648 28.8041 17.7273 29.0602 18.0512 29.0602H23.7101C24.0339 29.0602 24.2964 28.8041 24.2964 28.4883V26.9795C24.2964 26.6636 24.0339 26.4075 23.7101 26.4075Z" fill="#D9D9D9"/>
<path opacity="0.1" d="M23.7101 26.4075H18.0512C17.7273 26.4075 17.4648 26.6636 17.4648 26.9795V28.4883C17.4648 28.8041 17.7273 29.0602 18.0512 29.0602H23.7101C24.0339 29.0602 24.2964 28.8041 24.2964 28.4883V26.9795C24.2964 26.6636 24.0339 26.4075 23.7101 26.4075Z" fill="black"/>
<path d="M30.5417 26.4075H24.8828C24.559 26.4075 24.2965 26.6636 24.2965 26.9795V28.4883C24.2965 28.8041 24.559 29.0602 24.8828 29.0602H30.5417C30.8656 29.0602 31.1281 28.8041 31.1281 28.4883V26.9795C31.1281 26.6636 30.8656 26.4075 30.5417 26.4075Z" fill="#D9D9D9"/>
<path d="M37.3732 26.4075H31.7142C31.3904 26.4075 31.1279 26.6636 31.1279 26.9795V28.4883C31.1279 28.8041 31.3904 29.0602 31.7142 29.0602H37.3732C37.697 29.0602 37.9595 28.8041 37.9595 28.4883V26.9795C37.9595 26.6636 37.697 26.4075 37.3732 26.4075Z" fill="#D9D9D9"/>
<path opacity="0.1" d="M37.3732 26.4075H31.7142C31.3904 26.4075 31.1279 26.6636 31.1279 26.9795V28.4883C31.1279 28.8041 31.3904 29.0602 31.7142 29.0602H37.3732C37.697 29.0602 37.9595 28.8041 37.9595 28.4883V26.9795C37.9595 26.6636 37.697 26.4075 37.3732 26.4075Z" fill="black"/>
<path d="M44.2048 26.4075H38.5459C38.2221 26.4075 37.9596 26.6636 37.9596 26.9795V28.4883C37.9596 28.8041 38.2221 29.0602 38.5459 29.0602H44.2048C44.5287 29.0602 44.7912 28.8041 44.7912 28.4883V26.9795C44.7912 26.6636 44.5287 26.4075 44.2048 26.4075Z" fill="#D9D9D9"/>
<path d="M51.0364 26.4075H45.3775C45.0536 26.4075 44.7911 26.6636 44.7911 26.9795V28.4883C44.7911 28.8041 45.0536 29.0602 45.3775 29.0602H51.0364C51.3602 29.0602 51.6227 28.8041 51.6227 28.4883V26.9795C51.6227 26.6636 51.3602 26.4075 51.0364 26.4075Z" fill="#D9D9D9"/>
<path opacity="0.1" d="M51.0364 26.4075H45.3775C45.0536 26.4075 44.7911 26.6636 44.7911 26.9795V28.4883C44.7911 28.8041 45.0536 29.0602 45.3775 29.0602H51.0364C51.3602 29.0602 51.6227 28.8041 51.6227 28.4883V26.9795C51.6227 26.6636 51.3602 26.4075 51.0364 26.4075Z" fill="black"/>
<path d="M45.3774 26.4075H51.0364C51.3602 26.4075 51.6227 26.1515 51.6227 25.8356V24.3268C51.6227 24.011 51.3602 23.7549 51.0364 23.7549H45.3774C45.0536 23.7549 44.7911 24.011 44.7911 24.3268V25.8356C44.7911 26.1515 45.0536 26.4075 45.3774 26.4075Z" fill="#D9D9D9"/>
<path d="M38.5459 26.4075H44.2048C44.5286 26.4075 44.7911 26.1515 44.7911 25.8356V24.3268C44.7911 24.011 44.5286 23.7549 44.2048 23.7549H38.5459C38.2221 23.7549 37.9596 24.011 37.9596 24.3268V25.8356C37.9596 26.1515 38.2221 26.4075 38.5459 26.4075Z" fill="#D9D9D9"/>
<path opacity="0.1" d="M38.5459 26.4075H44.2048C44.5286 26.4075 44.7911 26.1515 44.7911 25.8356V24.3268C44.7911 24.011 44.5286 23.7549 44.2048 23.7549H38.5459C38.2221 23.7549 37.9596 24.011 37.9596 24.3268V25.8356C37.9596 26.1515 38.2221 26.4075 38.5459 26.4075Z" fill="black"/>
<path d="M31.7144 26.4075H37.3733C37.6971 26.4075 37.9596 26.1515 37.9596 25.8356V24.3268C37.9596 24.011 37.6971 23.7549 37.3733 23.7549H31.7144C31.3905 23.7549 31.128 24.011 31.128 24.3268V25.8356C31.128 26.1515 31.3905 26.4075 31.7144 26.4075Z" fill="#D9D9D9"/>
<path d="M24.8827 26.4075H30.5416C30.8654 26.4075 31.1279 26.1515 31.1279 25.8356V24.3268C31.1279 24.011 30.8654 23.7549 30.5416 23.7549H24.8827C24.5589 23.7549 24.2964 24.011 24.2964 24.3268V25.8356C24.2964 26.1515 24.5589 26.4075 24.8827 26.4075Z" fill="#D9D9D9"/>
<path opacity="0.1" d="M24.8827 26.4075H30.5416C30.8654 26.4075 31.1279 26.1515 31.1279 25.8356V24.3268C31.1279 24.011 30.8654 23.7549 30.5416 23.7549H24.8827C24.5589 23.7549 24.2964 24.011 24.2964 24.3268V25.8356C24.2964 26.1515 24.5589 26.4075 24.8827 26.4075Z" fill="black"/>
<path d="M18.0513 26.4075H23.7102C24.034 26.4075 24.2965 26.1515 24.2965 25.8356V24.3268C24.2965 24.011 24.034 23.7549 23.7102 23.7549H18.0513C17.7275 23.7549 17.4649 24.011 17.4649 24.3268V25.8356C17.4649 26.1515 17.7275 26.4075 18.0513 26.4075Z" fill="#D9D9D9"/>
<path d="M11.2196 26.4075H16.8785C17.2023 26.4075 17.4648 26.1515 17.4648 25.8356V24.3268C17.4648 24.011 17.2023 23.7549 16.8785 23.7549H11.2196C10.8958 23.7549 10.6333 24.011 10.6333 24.3268V25.8356C10.6333 26.1515 10.8958 26.4075 11.2196 26.4075Z" fill="#D9D9D9"/>
<path opacity="0.1" d="M11.2196 26.4075H16.8785C17.2023 26.4075 17.4648 26.1515 17.4648 25.8356V24.3268C17.4648 24.011 17.2023 23.7549 16.8785 23.7549H11.2196C10.8958 23.7549 10.6333 24.011 10.6333 24.3268V25.8356C10.6333 26.1515 10.8958 26.4075 11.2196 26.4075Z" fill="black"/>
<path d="M16.8787 21.1022H11.2197C10.8959 21.1022 10.6334 21.3583 10.6334 21.6742V23.1829C10.6334 23.4988 10.8959 23.7549 11.2197 23.7549H16.8787C17.2025 23.7549 17.465 23.4988 17.465 23.1829V21.6742C17.465 21.3583 17.2025 21.1022 16.8787 21.1022Z" fill="#D9D9D9"/>
<path d="M23.7101 21.1022H18.0512C17.7273 21.1022 17.4648 21.3583 17.4648 21.6742V23.1829C17.4648 23.4988 17.7273 23.7549 18.0512 23.7549H23.7101C24.0339 23.7549 24.2964 23.4988 24.2964 23.1829V21.6742C24.2964 21.3583 24.0339 21.1022 23.7101 21.1022Z" fill="#D9D9D9"/>
<path opacity="0.1" d="M23.7101 21.1022H18.0512C17.7273 21.1022 17.4648 21.3583 17.4648 21.6742V23.1829C17.4648 23.4988 17.7273 23.7549 18.0512 23.7549H23.7101C24.0339 23.7549 24.2964 23.4988 24.2964 23.1829V21.6742C24.2964 21.3583 24.0339 21.1022 23.7101 21.1022Z" fill="black"/>
<path d="M30.5417 21.1022H24.8828C24.559 21.1022 24.2965 21.3583 24.2965 21.6742V23.1829C24.2965 23.4988 24.559 23.7549 24.8828 23.7549H30.5417C30.8656 23.7549 31.1281 23.4988 31.1281 23.1829V21.6742C31.1281 21.3583 30.8656 21.1022 30.5417 21.1022Z" fill="#D9D9D9"/>
<path d="M37.3732 21.1022H31.7142C31.3904 21.1022 31.1279 21.3583 31.1279 21.6742V23.1829C31.1279 23.4988 31.3904 23.7549 31.7142 23.7549H37.3732C37.697 23.7549 37.9595 23.4988 37.9595 23.1829V21.6742C37.9595 21.3583 37.697 21.1022 37.3732 21.1022Z" fill="#D9D9D9"/>
<path opacity="0.1" d="M37.3732 21.1022H31.7142C31.3904 21.1022 31.1279 21.3583 31.1279 21.6742V23.1829C31.1279 23.4988 31.3904 23.7549 31.7142 23.7549H37.3732C37.697 23.7549 37.9595 23.4988 37.9595 23.1829V21.6742C37.9595 21.3583 37.697 21.1022 37.3732 21.1022Z" fill="black"/>
<path d="M44.2048 21.1022H38.5459C38.2221 21.1022 37.9596 21.3583 37.9596 21.6742V23.1829C37.9596 23.4988 38.2221 23.7549 38.5459 23.7549H44.2048C44.5287 23.7549 44.7912 23.4988 44.7912 23.1829V21.6742C44.7912 21.3583 44.5287 21.1022 44.2048 21.1022Z" fill="#D9D9D9"/>
<path d="M51.0364 21.1022H45.3775C45.0536 21.1022 44.7911 21.3583 44.7911 21.6742V23.1829C44.7911 23.4988 45.0536 23.7549 45.3775 23.7549H51.0364C51.3602 23.7549 51.6227 23.4988 51.6227 23.1829V21.6742C51.6227 21.3583 51.3602 21.1022 51.0364 21.1022Z" fill="#D9D9D9"/>
<path opacity="0.1" d="M51.0364 21.1022H45.3775C45.0536 21.1022 44.7911 21.3583 44.7911 21.6742V23.1829C44.7911 23.4988 45.0536 23.7549 45.3775 23.7549H51.0364C51.3602 23.7549 51.6227 23.4988 51.6227 23.1829V21.6742C51.6227 21.3583 51.3602 21.1022 51.0364 21.1022Z" fill="black"/>
<path d="M45.3774 21.1022H51.0364C51.3602 21.1022 51.6227 20.8462 51.6227 20.5303V19.0215C51.6227 18.7056 51.3602 18.4496 51.0364 18.4496H45.3774C45.0536 18.4496 44.7911 18.7056 44.7911 19.0215V20.5303C44.7911 20.8462 45.0536 21.1022 45.3774 21.1022Z" fill="#D9D9D9"/>
<path d="M38.5459 21.1022H44.2048C44.5286 21.1022 44.7911 20.8462 44.7911 20.5303V19.0215C44.7911 18.7056 44.5286 18.4496 44.2048 18.4496H38.5459C38.2221 18.4496 37.9596 18.7056 37.9596 19.0215V20.5303C37.9596 20.8462 38.2221 21.1022 38.5459 21.1022Z" fill="#D9D9D9"/>
<path opacity="0.1" d="M38.5459 21.1022H44.2048C44.5286 21.1022 44.7911 20.8462 44.7911 20.5303V19.0215C44.7911 18.7056 44.5286 18.4496 44.2048 18.4496H38.5459C38.2221 18.4496 37.9596 18.7056 37.9596 19.0215V20.5303C37.9596 20.8462 38.2221 21.1022 38.5459 21.1022Z" fill="black"/>
<path d="M31.7144 21.1022H37.3733C37.6971 21.1022 37.9596 20.8462 37.9596 20.5303V19.0215C37.9596 18.7056 37.6971 18.4496 37.3733 18.4496H31.7144C31.3905 18.4496 31.128 18.7056 31.128 19.0215V20.5303C31.128 20.8462 31.3905 21.1022 31.7144 21.1022Z" fill="#D9D9D9"/>
<path d="M24.8827 21.1022H30.5416C30.8654 21.1022 31.1279 20.8462 31.1279 20.5303V19.0215C31.1279 18.7056 30.8654 18.4496 30.5416 18.4496H24.8827C24.5589 18.4496 24.2964 18.7056 24.2964 19.0215V20.5303C24.2964 20.8462 24.5589 21.1022 24.8827 21.1022Z" fill="#D9D9D9"/>
<path opacity="0.1" d="M24.8827 21.1022H30.5416C30.8654 21.1022 31.1279 20.8462 31.1279 20.5303V19.0215C31.1279 18.7056 30.8654 18.4496 30.5416 18.4496H24.8827C24.5589 18.4496 24.2964 18.7056 24.2964 19.0215V20.5303C24.2964 20.8462 24.5589 21.1022 24.8827 21.1022Z" fill="black"/>
<path d="M18.0513 21.1022H23.7102C24.034 21.1022 24.2965 20.8462 24.2965 20.5303V19.0215C24.2965 18.7056 24.034 18.4496 23.7102 18.4496H18.0513C17.7275 18.4496 17.4649 18.7056 17.4649 19.0215V20.5303C17.4649 20.8462 17.7275 21.1022 18.0513 21.1022Z" fill="#D9D9D9"/>
<path d="M11.2196 21.1022H16.8785C17.2023 21.1022 17.4648 20.8462 17.4648 20.5303V19.0215C17.4648 18.7056 17.2023 18.4496 16.8785 18.4496H11.2196C10.8958 18.4496 10.6333 18.7056 10.6333 19.0215V20.5303C10.6333 20.8462 10.8958 21.1022 11.2196 21.1022Z" fill="#D9D9D9"/>
<path opacity="0.1" d="M11.2196 21.1022H16.8785C17.2023 21.1022 17.4648 20.8462 17.4648 20.5303V19.0215C17.4648 18.7056 17.2023 18.4496 16.8785 18.4496H11.2196C10.8958 18.4496 10.6333 18.7056 10.6333 19.0215V20.5303C10.6333 20.8462 10.8958 21.1022 11.2196 21.1022Z" fill="black"/>
<path d="M16.8787 15.9263H11.2197C10.8959 15.9263 10.6334 16.1824 10.6334 16.4983V18.007C10.6334 18.3229 10.8959 18.579 11.2197 18.579H16.8787C17.2025 18.579 17.465 18.3229 17.465 18.007V16.4983C17.465 16.1824 17.2025 15.9263 16.8787 15.9263Z" fill="#D9D9D9"/>
<path d="M23.7101 15.9263H18.0512C17.7273 15.9263 17.4648 16.1824 17.4648 16.4983V18.007C17.4648 18.3229 17.7273 18.579 18.0512 18.579H23.7101C24.0339 18.579 24.2964 18.3229 24.2964 18.007V16.4983C24.2964 16.1824 24.0339 15.9263 23.7101 15.9263Z" fill="#D9D9D9"/>
<path opacity="0.1" d="M23.7101 15.9263H18.0512C17.7273 15.9263 17.4648 16.1824 17.4648 16.4983V18.007C17.4648 18.3229 17.7273 18.579 18.0512 18.579H23.7101C24.0339 18.579 24.2964 18.3229 24.2964 18.007V16.4983C24.2964 16.1824 24.0339 15.9263 23.7101 15.9263Z" fill="black"/>
<path d="M30.5417 15.9263H24.8828C24.559 15.9263 24.2965 16.1824 24.2965 16.4983V18.007C24.2965 18.3229 24.559 18.579 24.8828 18.579H30.5417C30.8656 18.579 31.1281 18.3229 31.1281 18.007V16.4983C31.1281 16.1824 30.8656 15.9263 30.5417 15.9263Z" fill="#D9D9D9"/>
<path d="M37.3732 15.9263H31.7142C31.3904 15.9263 31.1279 16.1824 31.1279 16.4983V18.007C31.1279 18.3229 31.3904 18.579 31.7142 18.579H37.3732C37.697 18.579 37.9595 18.3229 37.9595 18.007V16.4983C37.9595 16.1824 37.697 15.9263 37.3732 15.9263Z" fill="#D9D9D9"/>
<path opacity="0.1" d="M37.3732 15.9263H31.7142C31.3904 15.9263 31.1279 16.1824 31.1279 16.4983V18.007C31.1279 18.3229 31.3904 18.579 31.7142 18.579H37.3732C37.697 18.579 37.9595 18.3229 37.9595 18.007V16.4983C37.9595 16.1824 37.697 15.9263 37.3732 15.9263Z" fill="black"/>
<path d="M44.2048 15.9263H38.5459C38.2221 15.9263 37.9596 16.1824 37.9596 16.4983V18.007C37.9596 18.3229 38.2221 18.579 38.5459 18.579H44.2048C44.5287 18.579 44.7912 18.3229 44.7912 18.007V16.4983C44.7912 16.1824 44.5287 15.9263 44.2048 15.9263Z" fill="#D9D9D9"/>
<path d="M51.0364 15.9263H45.3775C45.0536 15.9263 44.7911 16.1824 44.7911 16.4983V18.007C44.7911 18.3229 45.0536 18.579 45.3775 18.579H51.0364C51.3602 18.579 51.6227 18.3229 51.6227 18.007V16.4983C51.6227 16.1824 51.3602 15.9263 51.0364 15.9263Z" fill="#D9D9D9"/>
<path opacity="0.1" d="M51.0364 15.9263H45.3775C45.0536 15.9263 44.7911 16.1824 44.7911 16.4983V18.007C44.7911 18.3229 45.0536 18.579 45.3775 18.579H51.0364C51.3602 18.579 51.6227 18.3229 51.6227 18.007V16.4983C51.6227 16.1824 51.3602 15.9263 51.0364 15.9263Z" fill="black"/>
<path d="M45.3774 15.9263H51.0364C51.3602 15.9263 51.6227 15.6702 51.6227 15.3544V13.8456C51.6227 13.5297 51.3602 13.2737 51.0364 13.2737H45.3774C45.0536 13.2737 44.7911 13.5297 44.7911 13.8456V15.3544C44.7911 15.6702 45.0536 15.9263 45.3774 15.9263Z" fill="#D9D9D9"/>
<path d="M38.5459 15.9263H44.2048C44.5286 15.9263 44.7911 15.6702 44.7911 15.3544V13.8456C44.7911 13.5297 44.5286 13.2737 44.2048 13.2737H38.5459C38.2221 13.2737 37.9596 13.5297 37.9596 13.8456V15.3544C37.9596 15.6702 38.2221 15.9263 38.5459 15.9263Z" fill="#D9D9D9"/>
<path opacity="0.1" d="M38.5459 15.9263H44.2048C44.5286 15.9263 44.7911 15.6702 44.7911 15.3544V13.8456C44.7911 13.5297 44.5286 13.2737 44.2048 13.2737H38.5459C38.2221 13.2737 37.9596 13.5297 37.9596 13.8456V15.3544C37.9596 15.6702 38.2221 15.9263 38.5459 15.9263Z" fill="black"/>
<path d="M31.7144 15.9263H37.3733C37.6971 15.9263 37.9596 15.6702 37.9596 15.3544V13.8456C37.9596 13.5297 37.6971 13.2737 37.3733 13.2737H31.7144C31.3905 13.2737 31.128 13.5297 31.128 13.8456V15.3544C31.128 15.6702 31.3905 15.9263 31.7144 15.9263Z" fill="#D9D9D9"/>
<path d="M24.8827 15.9263H30.5416C30.8654 15.9263 31.1279 15.6702 31.1279 15.3544V13.8456C31.1279 13.5297 30.8654 13.2737 30.5416 13.2737H24.8827C24.5589 13.2737 24.2964 13.5297 24.2964 13.8456V15.3544C24.2964 15.6702 24.5589 15.9263 24.8827 15.9263Z" fill="#D9D9D9"/>
<path opacity="0.1" d="M24.8827 15.9263H30.5416C30.8654 15.9263 31.1279 15.6702 31.1279 15.3544V13.8456C31.1279 13.5297 30.8654 13.2737 30.5416 13.2737H24.8827C24.5589 13.2737 24.2964 13.5297 24.2964 13.8456V15.3544C24.2964 15.6702 24.5589 15.9263 24.8827 15.9263Z" fill="black"/>
<path d="M18.0513 15.9263H23.7102C24.034 15.9263 24.2965 15.6702 24.2965 15.3544V13.8456C24.2965 13.5297 24.034 13.2737 23.7102 13.2737H18.0513C17.7275 13.2737 17.4649 13.5297 17.4649 13.8456V15.3544C17.4649 15.6702 17.7275 15.9263 18.0513 15.9263Z" fill="#D9D9D9"/>
<path d="M11.2196 15.9263H16.8785C17.2023 15.9263 17.4648 15.6702 17.4648 15.3544V13.8456C17.4648 13.5297 17.2023 13.2737 16.8785 13.2737H11.2196C10.8958 13.2737 10.6333 13.5297 10.6333 13.8456V15.3544C10.6333 15.6702 10.8958 15.9263 11.2196 15.9263Z" fill="#D9D9D9"/>
<path opacity="0.1" d="M11.2196 15.9263H16.8785C17.2023 15.9263 17.4648 15.6702 17.4648 15.3544V13.8456C17.4648 13.5297 17.2023 13.2737 16.8785 13.2737H11.2196C10.8958 13.2737 10.6333 13.5297 10.6333 13.8456V15.3544C10.6333 15.6702 10.8958 15.9263 11.2196 15.9263Z" fill="black"/>
<path d="M16.8787 10.621H11.2197C10.8959 10.621 10.6334 10.8771 10.6334 11.1929V12.7017C10.6334 13.0176 10.8959 13.2736 11.2197 13.2736H16.8787C17.2025 13.2736 17.465 13.0176 17.465 12.7017V11.1929C17.465 10.8771 17.2025 10.621 16.8787 10.621Z" fill="#D9D9D9"/>
<path d="M23.7101 10.621H18.0512C17.7273 10.621 17.4648 10.8771 17.4648 11.1929V12.7017C17.4648 13.0176 17.7273 13.2736 18.0512 13.2736H23.7101C24.0339 13.2736 24.2964 13.0176 24.2964 12.7017V11.1929C24.2964 10.8771 24.0339 10.621 23.7101 10.621Z" fill="#D9D9D9"/>
<path opacity="0.1" d="M23.7101 10.621H18.0512C17.7273 10.621 17.4648 10.8771 17.4648 11.1929V12.7017C17.4648 13.0176 17.7273 13.2736 18.0512 13.2736H23.7101C24.0339 13.2736 24.2964 13.0176 24.2964 12.7017V11.1929C24.2964 10.8771 24.0339 10.621 23.7101 10.621Z" fill="black"/>
<path d="M30.5417 10.621H24.8828C24.559 10.621 24.2965 10.8771 24.2965 11.1929V12.7017C24.2965 13.0176 24.559 13.2736 24.8828 13.2736H30.5417C30.8656 13.2736 31.1281 13.0176 31.1281 12.7017V11.1929C31.1281 10.8771 30.8656 10.621 30.5417 10.621Z" fill="#D9D9D9"/>
<path d="M37.3732 10.621H31.7142C31.3904 10.621 31.1279 10.8771 31.1279 11.1929V12.7017C31.1279 13.0176 31.3904 13.2736 31.7142 13.2736H37.3732C37.697 13.2736 37.9595 13.0176 37.9595 12.7017V11.1929C37.9595 10.8771 37.697 10.621 37.3732 10.621Z" fill="#D9D9D9"/>
<path opacity="0.1" d="M37.3732 10.621H31.7142C31.3904 10.621 31.1279 10.8771 31.1279 11.1929V12.7017C31.1279 13.0176 31.3904 13.2736 31.7142 13.2736H37.3732C37.697 13.2736 37.9595 13.0176 37.9595 12.7017V11.1929C37.9595 10.8771 37.697 10.621 37.3732 10.621Z" fill="black"/>
<path d="M44.2048 10.621H38.5459C38.2221 10.621 37.9596 10.8771 37.9596 11.1929V12.7017C37.9596 13.0176 38.2221 13.2736 38.5459 13.2736H44.2048C44.5287 13.2736 44.7912 13.0176 44.7912 12.7017V11.1929C44.7912 10.8771 44.5287 10.621 44.2048 10.621Z" fill="#D9D9D9"/>
<path d="M51.0364 10.621H45.3775C45.0536 10.621 44.7911 10.8771 44.7911 11.1929V12.7017C44.7911 13.0176 45.0536 13.2736 45.3775 13.2736H51.0364C51.3602 13.2736 51.6227 13.0176 51.6227 12.7017V11.1929C51.6227 10.8771 51.3602 10.621 51.0364 10.621Z" fill="#D9D9D9"/>
<path opacity="0.1" d="M51.0364 10.621H45.3775C45.0536 10.621 44.7911 10.8771 44.7911 11.1929V12.7017C44.7911 13.0176 45.0536 13.2736 45.3775 13.2736H51.0364C51.3602 13.2736 51.6227 13.0176 51.6227 12.7017V11.1929C51.6227 10.8771 51.3602 10.621 51.0364 10.621Z" fill="black"/>
<path d="M51.0363 1.78375H44.8468C44.523 1.78375 44.2605 2.03982 44.2605 2.35569V4.07022C44.2605 4.38609 44.523 4.64215 44.8468 4.64215H51.0363C51.3601 4.64215 51.6226 4.38609 51.6226 4.07022V2.35569C51.6226 2.03982 51.3601 1.78375 51.0363 1.78375Z" fill="url(#paint0_linear)"/>
<path d="M45.1122 4.53928H50.7711C51.0949 4.53928 51.3574 4.28321 51.3574 3.96734V2.45856C51.3574 2.14268 51.0949 1.88662 50.7711 1.88662H45.1122C44.7884 1.88662 44.5259 2.14268 44.5259 2.45856V3.96734C44.5259 4.28321 44.7884 4.53928 45.1122 4.53928Z" fill="#D9D9D9"/>
<path d="M38.5459 10.621H44.2048C44.5286 10.621 44.7911 10.3649 44.7911 10.049V8.54027C44.7911 8.22439 44.5286 7.96833 44.2048 7.96833H38.5459C38.2221 7.96833 37.9596 8.22439 37.9596 8.54027V10.049C37.9596 10.3649 38.2221 10.621 38.5459 10.621Z" fill="#D9D9D9"/>
<path opacity="0.1" d="M38.5459 10.621H44.2048C44.5286 10.621 44.7911 10.3649 44.7911 10.049V8.54027C44.7911 8.22439 44.5286 7.96833 44.2048 7.96833H38.5459C38.2221 7.96833 37.9596 8.22439 37.9596 8.54027V10.049C37.9596 10.3649 38.2221 10.621 38.5459 10.621Z" fill="black"/>
<path d="M31.7144 10.621H37.3733C37.6971 10.621 37.9596 10.3649 37.9596 10.049V8.54027C37.9596 8.22439 37.6971 7.96833 37.3733 7.96833H31.7144C31.3905 7.96833 31.128 8.22439 31.128 8.54027V10.049C31.128 10.3649 31.3905 10.621 31.7144 10.621Z" fill="#D9D9D9"/>
<path d="M24.8827 10.621H30.5416C30.8654 10.621 31.1279 10.3649 31.1279 10.049V8.54027C31.1279 8.22439 30.8654 7.96833 30.5416 7.96833H24.8827C24.5589 7.96833 24.2964 8.22439 24.2964 8.54027V10.049C24.2964 10.3649 24.5589 10.621 24.8827 10.621Z" fill="#D9D9D9"/>
<path opacity="0.1" d="M24.8827 10.621H30.5416C30.8654 10.621 31.1279 10.3649 31.1279 10.049V8.54027C31.1279 8.22439 30.8654 7.96833 30.5416 7.96833H24.8827C24.5589 7.96833 24.2964 8.22439 24.2964 8.54027V10.049C24.2964 10.3649 24.5589 10.621 24.8827 10.621Z" fill="black"/>
<path d="M18.0513 10.621H23.7102C24.034 10.621 24.2965 10.3649 24.2965 10.049V8.54027C24.2965 8.22439 24.034 7.96833 23.7102 7.96833H18.0513C17.7275 7.96833 17.4649 8.22439 17.4649 8.54027V10.049C17.4649 10.3649 17.7275 10.621 18.0513 10.621Z" fill="#D9D9D9"/>
<path d="M11.2196 10.621H16.8785C17.2023 10.621 17.4648 10.3649 17.4648 10.049V8.54027C17.4648 8.22439 17.2023 7.96833 16.8785 7.96833H11.2196C10.8958 7.96833 10.6333 8.22439 10.6333 8.54027V10.049C10.6333 10.3649 10.8958 10.621 11.2196 10.621Z" fill="#D9D9D9"/>
<path opacity="0.1" d="M11.2196 10.621H16.8785C17.2023 10.621 17.4648 10.3649 17.4648 10.049V8.54027C17.4648 8.22439 17.2023 7.96833 16.8785 7.96833H11.2196C10.8958 7.96833 10.6333 8.22439 10.6333 8.54027V10.049C10.6333 10.3649 10.8958 10.621 11.2196 10.621Z" fill="black"/>
<path d="M33.0965 42C51.3753 42 66.1931 38.7123 66.1931 34.6567C66.1931 30.601 51.3753 27.3133 33.0965 27.3133C14.8178 27.3133 0 30.601 0 34.6567C0 38.7123 14.8178 42 33.0965 42Z" fill="#F5F5F5"/>
<path d="M7.55779 31.3609C7.55779 31.3609 8.15472 29.3934 7.44636 27.9448C7.14612 27.3392 7.05558 26.6549 7.18835 25.9948C7.25388 25.6818 7.34868 25.3754 7.47157 25.0793" stroke="#535461" stroke-width="2" stroke-miterlimit="10"/>
<path d="M7.03247 24.1644C7.03247 24.4058 7.48017 25.1052 7.48017 25.1052C7.48017 25.1052 7.92787 24.4058 7.92787 24.1644C7.92787 24.0486 7.8807 23.9375 7.79674 23.8556C7.71278 23.7737 7.59891 23.7277 7.48017 23.7277C7.36143 23.7277 7.24756 23.7737 7.1636 23.8556C7.07964 23.9375 7.03247 24.0486 7.03247 24.1644Z" fill="#D9D9D9"/>
<path d="M6.29231 25.5005C6.42496 25.703 7.19235 26.0523 7.19235 26.0523C7.19235 26.0523 7.17842 25.2281 7.04378 25.0256C6.97891 24.9291 6.87751 24.8615 6.76174 24.8377C6.64598 24.8139 6.52526 24.8358 6.42596 24.8985C6.32667 24.9613 6.25687 25.0598 6.23183 25.1726C6.20678 25.2854 6.22853 25.4033 6.29231 25.5005Z" fill="#D9D9D9"/>
<path d="M6.32478 27.783C6.54564 27.8917 7.38599 27.8167 7.38599 27.8167C7.38599 27.8167 6.94758 27.1121 6.72671 27.0034C6.62108 26.9541 6.49984 26.9472 6.38901 26.984C6.27818 27.0209 6.18656 27.0987 6.13381 27.2007C6.08106 27.3026 6.07137 27.4207 6.10682 27.5296C6.14227 27.6385 6.22004 27.7294 6.32345 27.783H6.32478Z" fill="#D9D9D9"/>
<path d="M6.74806 29.5047C6.94704 29.6483 7.78937 29.713 7.78937 29.713C7.78937 29.713 7.47897 28.9463 7.28065 28.8027C7.18492 28.7413 7.0687 28.718 6.95592 28.7377C6.84314 28.7574 6.74239 28.8185 6.6744 28.9084C6.60641 28.9984 6.57636 29.1104 6.59043 29.2213C6.6045 29.3322 6.66163 29.4336 6.75005 29.5047H6.74806Z" fill="#D9D9D9"/>
<path d="M8.13217 26.0989C7.95508 26.2671 7.12866 26.4412 7.12866 26.4412C7.12866 26.4412 7.33095 25.6409 7.50804 25.4707C7.5502 25.4307 7.60002 25.3992 7.65465 25.378C7.70928 25.3568 7.76765 25.3464 7.82644 25.3472C7.88523 25.348 7.94327 25.3601 7.99727 25.3828C8.05126 25.4055 8.10014 25.4383 8.14113 25.4794C8.18211 25.5206 8.21438 25.5691 8.23611 25.6224C8.25784 25.6757 8.2686 25.7327 8.26776 25.79C8.26693 25.8474 8.25453 25.904 8.23127 25.9567C8.208 26.0093 8.17433 26.057 8.13217 26.097V26.0989Z" fill="#D9D9D9"/>
<path d="M8.60113 28.1169C8.38026 28.2256 7.53992 28.1505 7.53992 28.1505C7.53992 28.1505 7.97833 27.446 8.19919 27.3373C8.30445 27.2909 8.42398 27.2861 8.53282 27.3237C8.64166 27.3613 8.73139 27.4385 8.78327 27.5391C8.83515 27.6398 8.84516 27.7561 8.81122 27.8637C8.77728 27.9714 8.70201 28.0621 8.60113 28.1169Z" fill="#D9D9D9"/>
<path d="M8.78021 30.1433C8.58123 30.2869 7.73889 30.3516 7.73889 30.3516C7.73889 30.3516 8.0493 29.5849 8.24761 29.4413C8.34335 29.3799 8.45957 29.3566 8.57234 29.3763C8.68512 29.396 8.78588 29.4571 8.85387 29.547C8.92186 29.637 8.95191 29.7489 8.93784 29.8599C8.92376 29.9708 8.86664 30.0722 8.77822 30.1433H8.78021Z" fill="#D9D9D9"/>
<path d="M39.5951 20.2107C39.5951 20.2107 41.7766 22.3386 40.5449 25.4959C39.3133 28.6532 42.6561 33.9068 42.6561 33.9068C42.6561 33.9068 42.6203 33.9016 42.5539 33.89C38.0736 33.1155 35.8477 28.1169 38.3389 24.4045C39.2648 23.0238 40.0256 21.405 39.5951 20.2107Z" fill="#D9D9D9"/>
<path opacity="0.2" d="M39.5951 20.2107C39.5951 20.2107 41.7766 22.3386 40.5449 25.4959C39.3133 28.6532 42.6561 33.9068 42.6561 33.9068C42.6561 33.9068 42.6203 33.9016 42.5539 33.89C38.0736 33.1155 35.8477 28.1169 38.3389 24.4045C39.2648 23.0238 40.0256 21.405 39.5951 20.2107Z" fill="black"/>
<path d="M39.5952 20.2107C39.5952 20.2107 40.8269 22.8187 39.5952 24.9466C38.3635 27.0746 39.3843 33.0457 42.6581 33.9036" stroke="#535461" stroke-miterlimit="10"/>
<path d="M35.7104 28.8163C35.7104 28.8163 38.1997 28.4281 38.4265 30.6059C38.6533 32.7836 43.2126 33.0832 43.2126 33.0832L43.127 33.1388C39.3623 35.5495 35.7648 34.6741 36.3061 31.4735C36.5077 30.2837 36.4898 29.0874 35.7104 28.8163Z" fill="#D9D9D9"/>
<path opacity="0.2" d="M35.7104 28.8163C35.7104 28.8163 38.1997 28.4281 38.4265 30.6059C38.6533 32.7836 43.2126 33.0832 43.2126 33.0832L43.127 33.1388C39.3623 35.5495 35.7648 34.6741 36.3061 31.4735C36.5077 30.2837 36.4898 29.0874 35.7104 28.8163Z" fill="#F5F5F5"/>
<path d="M35.7104 28.8163C35.7104 28.8163 37.6425 29.2297 37.484 30.9436C37.3255 32.6575 40.3533 34.7117 43.2126 33.0832" stroke="#535461" stroke-miterlimit="10"/>
<path d="M54.6478 33.8253C54.6478 33.8253 50.9534 33.1045 49.9678 32.1431C48.9822 31.1817 44.549 29.5002 44.0562 30.7016C43.5634 31.9031 37.4064 35.9882 41.5968 36.7089C45.7873 37.4297 51.4489 37.6697 52.6805 37.1896C53.9122 36.7096 54.6478 33.8253 54.6478 33.8253Z" fill="#A8A8A8"/>
<path opacity="0.2" d="M41.5968 36.2625C45.784 36.9832 51.4489 37.2233 52.6805 36.7432C53.6184 36.377 54.2724 34.6191 54.5277 33.8007L54.6511 33.8259C54.6511 33.8259 53.9122 36.7089 52.6805 37.1903C51.4489 37.6716 45.7827 37.4303 41.5968 36.7096C40.3884 36.5012 40.0428 36.0128 40.1728 35.3942C40.2703 35.7973 40.6942 36.1072 41.5968 36.2625Z" fill="black"/>
<path d="M62.1227 1.82256C62.0568 1.66251 61.9519 1.52059 61.8169 1.40913C60.8254 0.527933 59.2223 0.795141 57.9913 0.256198C57.7074 0.131976 57.4169 -0.0401236 57.1091 0.00710669C56.6793 0.0718057 56.2794 0.550578 55.9047 0.338365L55.9312 0.417946L55.9047 0.404359L56.1806 1.22345C56.2867 1.53789 56.3981 1.86138 56.6037 2.12341C56.2993 2.38237 56.0663 2.71166 55.926 3.08116C55.7858 3.45066 55.7427 3.84857 55.8009 4.23849C55.859 4.6284 56.0164 4.99787 56.2588 5.3131C56.5011 5.62832 56.8206 5.87923 57.1881 6.04288C57.2013 6.07005 57.2139 6.09787 57.2265 6.12569L57.2617 6.13993C57.3433 6.32314 57.4043 6.51448 57.4434 6.71057C57.1244 6.75392 56.5679 7.09876 56.0214 7.606L54.9283 7.57042C54.2214 7.5474 53.5372 7.32045 52.9624 6.91825L49.6886 4.62467C49.4554 4.64708 49.2357 4.74187 49.0618 4.89512C48.6559 4.48234 48.311 4.05403 48.3402 3.79523C48.3402 3.79523 46.8187 1.01771 46.2655 2.40615C45.7124 3.79459 47.3029 5.2529 47.3029 5.2529L48.3117 6.52812C48.2718 6.7517 48.2466 6.97752 48.2361 7.20422C49.481 8.59331 53.8373 9.84977 53.8373 9.84977L54.5165 9.88212L54.5204 9.91447C54.4786 10.0883 54.4582 10.2664 54.4594 10.445C54.4594 10.4709 54.4594 10.4974 54.4594 10.5246C54.4594 10.5517 54.4594 10.5602 54.4594 10.5776C54.4939 12.7929 54.805 19.5708 54.805 19.5708C54.8653 19.5443 54.9283 19.5203 54.992 19.4977L54.9436 20.1C54.9436 20.1 52.0392 20.4966 49.8955 21.2905C47.7519 22.0843 47.6829 23.0102 47.6829 23.0102V31.1791C47.0707 31.4858 46.1044 31.8908 45.6082 31.6727C45.0697 31.4385 44.7745 31.6352 44.7208 31.8403C44.7106 31.8809 44.7106 31.9233 44.7208 31.9639C44.7254 31.9821 44.7323 31.9997 44.7414 32.0163V32.0202C44.7512 32.0373 44.7635 32.053 44.7779 32.0668C44.9854 32.2654 49.4803 33.9844 50.5177 33.7198C50.5498 33.7116 50.5812 33.7012 50.6119 33.6888C50.6218 33.6849 50.6304 33.6797 50.6404 33.6752C50.6503 33.6706 50.6789 33.6577 50.6968 33.6474C50.7147 33.637 50.7173 33.6338 50.7273 33.6273C50.7372 33.6208 50.7584 33.6072 50.773 33.5962C50.7876 33.5852 50.7923 33.5794 50.8016 33.571C50.8108 33.5626 50.8287 33.5484 50.8407 33.5354C50.8526 33.5225 50.8579 33.516 50.8666 33.5063C50.8752 33.4966 50.8904 33.4804 50.901 33.4662C50.9117 33.452 50.9156 33.4448 50.9236 33.4345C50.9316 33.4241 50.9448 33.4047 50.9541 33.3892C50.9634 33.3737 50.9667 33.3672 50.9727 33.3556C50.9786 33.3439 50.9912 33.3226 50.9999 33.3051C51.0085 33.2876 51.0105 33.2824 51.0151 33.2708C51.0198 33.2592 51.0317 33.2339 51.039 33.2152C51.0463 33.1964 51.047 33.1925 51.0516 33.1809C51.0562 33.1692 51.0662 33.1401 51.0722 33.1162C51.0722 33.1052 51.0781 33.0942 51.0814 33.0832C51.0874 33.0605 51.0941 33.0385 51.0994 33.0185C51.0994 33.0081 51.104 32.9978 51.106 32.9874C51.1113 32.9628 51.1166 32.9383 51.1206 32.9137C51.1206 32.9046 51.1206 32.8949 51.1252 32.8858C51.1299 32.8593 51.1338 32.8321 51.1372 32.8056V32.7823C51.1405 32.7532 51.1438 32.7241 51.1464 32.695V32.6769C51.1491 32.6454 51.1511 32.6139 51.1524 32.5824V32.5695C51.1524 32.5358 51.1524 32.5022 51.1524 32.4685V32.4621C51.1512 32.0676 51.1067 31.6743 51.0198 31.2891L51.2804 24.332C52.6387 24.3526 53.9971 24.3038 55.3502 24.1858L55.4987 27.5061C55.4987 27.5061 55.4987 29.6884 56.2595 30.6803C56.9108 31.5291 57.6629 35.2836 57.8659 36.3492C57.5867 36.8668 57.0521 37.5138 56.1209 37.4918C56.1209 37.4918 54.3692 37.3443 54.468 37.8153C54.4708 37.8276 54.4746 37.8397 54.4793 37.8515C54.4848 37.865 54.4913 37.8782 54.4986 37.891C54.5058 37.9033 54.5138 37.9155 54.5231 37.9285L54.5284 37.9362C54.5383 37.9498 54.5496 37.9641 54.5622 37.9789V37.9822C54.5742 37.9958 54.5868 38.0094 54.6007 38.0229L54.6126 38.0346C54.6285 38.0501 54.6445 38.0656 54.663 38.0818C55.5618 38.8757 60.8174 39.0077 60.8174 39.0077V38.9895C60.8174 38.9844 60.8174 38.9779 60.8174 38.9708C60.8174 38.7411 60.7829 37.5364 60.4685 36.6293H60.5415C60.5415 36.6293 59.7807 29.9498 59.1586 29.1566C59.1586 29.1566 58.9934 25.6344 59.3662 23.4275L59.4325 23.4029C61.1756 22.7676 61.2996 21.2031 61.1198 20.0541C61.4515 20.1576 61.6451 20.2281 61.6451 20.2281C61.6451 20.2281 61.6392 20.1783 61.6279 20.0897L61.6451 20.0961C61.6451 20.0961 61.612 19.8859 61.5569 19.5585C61.4322 18.6572 61.1908 17.0825 60.9335 16.3391C60.8917 16.1754 60.8519 16.0356 60.8154 15.9302C60.6669 15.4835 60.5649 15.0233 60.511 14.5566C60.4405 13.9517 60.4048 13.3435 60.4042 12.7347C60.4098 11.9213 60.4737 11.1093 60.5952 10.3046C60.7007 9.60197 60.7942 8.80229 60.7876 8.24394C60.7949 8.04894 60.7809 7.85374 60.7458 7.66165C60.6536 7.24951 60.2457 6.98166 59.8219 6.81085C59.7947 6.79986 59.7668 6.7908 59.7389 6.78045C59.7496 6.62452 59.7628 6.44725 59.7801 6.26285C59.8309 6.29718 59.8883 6.32108 59.9488 6.33309C60.0093 6.34511 60.0718 6.34498 60.1323 6.33273C60.3147 6.29391 60.4453 6.14575 60.5614 6.00923C61.1742 5.2749 61.8037 4.50951 62.0391 3.59725C62.1342 3.18987 62.1788 2.7728 62.1718 2.35503C62.1718 2.33217 62.1718 2.30931 62.1718 2.28645C62.1831 2.13022 62.1665 1.97325 62.1227 1.82256Z" fill="url(#paint1_linear)"/>
<path d="M56.5427 5.40237C56.5427 5.40237 57.4713 6.76105 57.2723 7.40804C57.0733 8.05503 59.4611 7.66683 59.4611 7.66683C59.4611 7.66683 59.5274 5.14357 59.9917 4.56128C60.456 3.97899 56.5427 5.40237 56.5427 5.40237Z" fill="white"/>
<path d="M50.4076 6.2758C50.4076 6.2758 48.4841 4.72303 48.5505 4.14074C48.5505 4.14074 47.0913 1.42338 46.5607 2.78206C46.0301 4.14074 47.5556 5.56411 47.5556 5.56411L49.4127 7.95798L50.4076 6.2758Z" fill="white"/>
<path d="M48.4509 30.635C48.4509 30.635 46.6601 31.7349 45.9305 31.4114C45.201 31.0879 44.9357 31.6055 45.1346 31.7996C45.3336 31.9937 49.6448 33.6758 50.6397 33.417C51.6346 33.1582 51.1285 31.0387 51.1285 31.0387L48.4509 30.635Z" fill="white"/>
<path d="M57.9356 35.358C57.9356 35.358 57.5045 37.1372 56.0122 37.1049C56.0122 37.1049 53.7571 36.9108 54.6193 37.6872C55.4816 38.4636 60.5223 38.5929 60.5223 38.5929C60.5223 38.5929 60.5223 35.9403 59.5938 35.358C58.6652 34.7757 57.9356 35.358 57.9356 35.358Z" fill="white"/>
<path d="M55.2162 22.8064L55.4152 27.3353C55.4152 27.3353 55.4152 29.4704 56.1447 30.4409C56.8743 31.4114 57.7366 36.2638 57.7366 36.2638H60.2569C60.2569 36.2638 59.5274 29.7292 58.9304 28.9528C58.9304 28.9528 58.6651 23.1946 59.5937 21.9006L55.2162 22.8064Z" fill="white"/>
<path opacity="0.1" d="M55.2162 22.8064L55.4152 27.3353C55.4152 27.3353 55.4152 29.4704 56.1447 30.4409C56.8743 31.4114 57.7366 36.2638 57.7366 36.2638H60.2569C60.2569 36.2638 59.5274 29.7292 58.9304 28.9528C58.9304 28.9528 58.6651 23.1946 59.5937 21.9006L55.2162 22.8064Z" fill="white"/>
<path d="M60.456 18.7304C60.456 18.7304 61.9815 22.2888 59.1958 23.324C56.4101 24.3592 51.3693 24.2298 51.3693 24.2298L51.104 31.7349C51.104 31.7349 47.9867 32.1231 47.9204 31.1526V22.9358C47.9204 22.9358 47.9867 22.03 50.0428 21.2536C52.0989 20.4772 54.8846 20.089 54.8846 20.089L55.0173 18.4069L60.456 18.7304Z" fill="white"/>
<path opacity="0.1" d="M58.0118 7.00754C58.5416 6.95032 59.0776 7.0242 59.5704 7.22234C59.977 7.38927 60.3663 7.6513 60.4565 8.05437C60.5613 8.53185 60.4452 9.60262 60.3119 10.5091C60.0984 11.9295 60.0712 13.3708 60.231 14.7979C60.2973 15.3925 60.3935 15.9108 60.5228 16.1417C60.9208 16.8534 61.3188 20.2178 61.3188 20.2178C61.3188 20.2178 56.9413 18.6003 54.7525 19.5708C54.7525 19.5708 54.454 12.9391 54.4209 10.7717C54.395 9.09344 56.5765 7.18093 57.3061 7.11624C57.7332 7.07871 57.5866 7.05089 58.0118 7.00754Z" fill="black"/>
<path d="M58.0118 6.87815C58.5416 6.82093 59.0776 6.8948 59.5704 7.09295C59.977 7.25987 60.3663 7.5219 60.4565 7.92498C60.5613 8.40246 60.4452 9.47322 60.3119 10.3797C60.0984 11.8001 60.0712 13.2414 60.231 14.6686C60.2826 15.1248 60.3804 15.5749 60.5228 16.0124C60.8213 16.8858 61.3188 20.0884 61.3188 20.0884C61.3188 20.0884 56.9413 18.4709 54.7525 19.4414C54.7525 19.4414 54.454 12.8098 54.4209 10.6423C54.395 8.96404 56.5765 7.05154 57.3061 6.98684C57.7332 6.94932 57.5866 6.92149 58.0118 6.87815Z" fill="white"/>
<path opacity="0.1" d="M59.1957 10.4489L54.4866 10.1901C54.4866 10.1901 54.1868 7.93792 54.8667 7.96121L59.5274 8.11972C59.5274 8.11972 60.5223 9.2843 59.1957 10.4489Z" fill="black"/>
<path d="M59.1957 10.3195L53.8233 10.0607C53.8233 10.0607 49.6448 8.83142 48.4509 7.47274C48.4509 7.47274 48.5173 5.07888 49.8438 4.94948L52.9816 7.19389C53.5301 7.58628 54.1869 7.80857 54.8666 7.83182L59.5273 7.99033C59.5273 7.99033 60.5222 9.15492 59.1957 10.3195Z" fill="white"/>
<path opacity="0.1" d="M59.4279 5.69351C59.5068 5.08016 59.792 4.87636 59.9917 4.62598C60.456 4.04369 56.5427 5.46706 56.5427 5.46706C56.745 5.77017 56.9224 6.0884 57.0733 6.41879C57.3853 6.55901 57.7247 6.63163 58.0682 6.63165C58.6426 6.63165 59.0154 6.02542 59.4279 5.69351Z" fill="black"/>
<path d="M58.0682 6.56694C59.3869 6.56694 60.4559 5.52414 60.4559 4.23778C60.4559 2.95142 59.3869 1.90862 58.0682 1.90862C56.7494 1.90862 55.6804 2.95142 55.6804 4.23778C55.6804 5.52414 56.7494 6.56694 58.0682 6.56694Z" fill="white"/>
<path opacity="0.1" d="M56.5607 2.60543C56.3066 2.33434 56.1839 1.97332 56.0685 1.6233L55.8032 0.821677C56.1627 1.02871 56.5461 0.562881 56.9586 0.498182C57.2538 0.452246 57.533 0.620464 57.8049 0.741451C58.9855 1.2681 60.5243 1.00672 61.4741 1.86915C61.6039 1.97882 61.7045 2.11758 61.7672 2.27352C61.811 2.42047 61.829 2.57361 61.8203 2.72642C61.828 3.13478 61.7864 3.54261 61.6962 3.94146C61.4707 4.83366 60.8672 5.58288 60.2789 6.30104C60.1674 6.43755 60.0421 6.58248 59.867 6.62065C59.5254 6.69505 59.2614 6.33533 59.1294 6.0196C58.9546 5.60122 58.8256 5.16596 58.7448 4.72109C58.7103 4.53281 58.6831 4.33872 58.5869 4.17244C58.3813 3.81724 57.8746 3.48081 57.5668 3.20519C57.2591 2.92957 56.8432 2.90628 56.5607 2.60543Z" fill="black"/>
<path d="M56.5607 2.54073C56.3066 2.26964 56.1839 1.90862 56.0685 1.5586L55.8032 0.75698C56.1627 0.964016 56.5461 0.498184 56.9586 0.433485C57.2538 0.387548 57.533 0.555766 57.8049 0.676753C58.9855 1.2034 60.5243 0.942019 61.4741 1.80446C61.6039 1.91412 61.7045 2.05288 61.7672 2.20883C61.811 2.35578 61.829 2.50891 61.8203 2.66172C61.828 3.07008 61.7864 3.47791 61.6962 3.87677C61.4707 4.76896 60.8672 5.51818 60.2789 6.23634C60.1674 6.37285 60.0421 6.51778 59.867 6.55595C59.5254 6.63036 59.2614 6.27063 59.1294 5.9549C58.9546 5.53652 58.8256 5.10126 58.7448 4.65639C58.7103 4.46811 58.6831 4.27402 58.5869 4.10774C58.3813 3.75254 57.8746 3.41611 57.5668 3.14049C57.2591 2.86487 56.8432 2.84158 56.5607 2.54073Z" fill="#D9D9D9"/>
<path d="M58.6982 4.91712C58.8081 4.91712 58.8972 4.72884 58.8972 4.49658C58.8972 4.26432 58.8081 4.07603 58.6982 4.07603C58.5884 4.07603 58.4993 4.26432 58.4993 4.49658C58.4993 4.72884 58.5884 4.91712 58.6982 4.91712Z" fill="white"/>
<path opacity="0.1" d="M59.8921 15.7219C59.8921 15.7219 59.7595 16.1101 59.0962 16.0454C58.433 15.9807 56.5095 15.8513 56.5095 16.0454" fill="black"/>
<path opacity="0.5" d="M54.6192 37.6225C54.4998 37.5151 54.4401 37.4284 54.4262 37.3527C54.409 37.4368 54.462 37.5468 54.6192 37.6872C55.4815 38.4636 60.5222 38.593 60.5222 38.593C60.5222 38.593 60.5222 38.5703 60.5222 38.5283C60.4897 38.5276 55.4788 38.3963 54.6192 37.6225Z" fill="white"/>
<path opacity="0.5" d="M50.6397 33.2876C49.6448 33.5464 45.3336 31.8643 45.1346 31.6702C45.1081 31.6439 45.0891 31.6113 45.0796 31.5757C45.0681 31.6145 45.0671 31.6555 45.0768 31.6947C45.0864 31.734 45.1064 31.7701 45.1346 31.7996C45.3336 31.9937 49.6448 33.6758 50.6397 33.417C51.1517 33.2837 51.2658 32.6581 51.2565 32.0816C51.2466 32.6186 51.1132 33.1634 50.6397 33.2876Z" fill="white"/>
<path d="M33.3015 32.5915C33.3279 32.5915 33.3532 32.5812 33.3719 32.563C33.3905 32.5448 33.401 32.5202 33.401 32.4944C33.401 32.4687 33.3905 32.444 33.3719 32.4258C33.3532 32.4076 33.3279 32.3974 33.3015 32.3974C33.2751 32.3974 33.2498 32.4076 33.2312 32.4258C33.2125 32.444 33.202 32.4687 33.202 32.4944C33.202 32.5202 33.2125 32.5448 33.2312 32.563C33.2498 32.5812 33.2751 32.5915 33.3015 32.5915Z" fill="#67647E"/>
<path d="M6.06812 30.875C6.06812 30.875 8.54339 30.8006 9.28889 30.2824C10.0344 29.7641 13.096 29.1456 13.281 29.9763C13.4661 30.8071 17.0012 34.1093 14.2043 34.1339C11.4073 34.1585 7.71167 33.7095 6.96683 33.2669C6.22198 32.8244 6.06812 30.875 6.06812 30.875Z" fill="#A8A8A8"/>
<path opacity="0.2" d="M14.2567 33.8421C11.4624 33.8641 7.76406 33.4177 7.01923 32.9751C6.45214 32.638 6.22332 31.4295 6.15102 30.8718H6.06812C6.06812 30.8718 6.22464 32.8192 6.96948 33.2611C7.71432 33.703 11.4126 34.1533 14.2043 34.1339C15.0108 34.1274 15.2894 33.8479 15.2741 33.4332C15.1647 33.681 14.8569 33.8376 14.2567 33.8421Z" fill="black"/>
<path d="M62.7548 37.0829H68.4137C68.7375 37.0829 69 36.8268 69 36.5109V35.0022C69 34.6863 68.7375 34.4302 68.4137 34.4302H62.7548C62.431 34.4302 62.1684 34.6863 62.1684 35.0022V36.5109C62.1684 36.8268 62.431 37.0829 62.7548 37.0829Z" fill="#D9D9D9"/>
<path opacity="0.1" d="M62.7548 37.0829H68.4137C68.7375 37.0829 69 36.8268 69 36.5109V35.0022C69 34.6863 68.7375 34.4302 68.4137 34.4302H62.7548C62.431 34.4302 62.1684 34.6863 62.1684 35.0022V36.5109C62.1684 36.8268 62.431 37.0829 62.7548 37.0829Z" fill="black"/>
<path d="M68.4137 31.907H62.7548C62.431 31.907 62.1685 32.163 62.1685 32.4789V33.9877C62.1685 34.3035 62.431 34.5596 62.7548 34.5596H68.4137C68.7375 34.5596 69 34.3035 69 33.9877V32.4789C69 32.163 68.7375 31.907 68.4137 31.907Z" fill="#D9D9D9"/>
<path d="M62.7548 31.907H68.4137C68.7375 31.907 69 31.6509 69 31.335V29.8262C69 29.5104 68.7375 29.2543 68.4137 29.2543H62.7548C62.431 29.2543 62.1684 29.5104 62.1684 29.8262V31.335C62.1684 31.6509 62.431 31.907 62.7548 31.907Z" fill="#D9D9D9"/>
<path opacity="0.1" d="M62.7548 31.907H68.4137C68.7375 31.907 69 31.6509 69 31.335V29.8262C69 29.5104 68.7375 29.2543 68.4137 29.2543H62.7548C62.431 29.2543 62.1684 29.5104 62.1684 29.8262V31.335C62.1684 31.6509 62.431 31.907 62.7548 31.907Z" fill="black"/>
<path d="M68.4137 26.6016H62.7548C62.431 26.6016 62.1685 26.8577 62.1685 27.1736V28.6824C62.1685 28.9982 62.431 29.2543 62.7548 29.2543H68.4137C68.7375 29.2543 69 28.9982 69 28.6824V27.1736C69 26.8577 68.7375 26.6016 68.4137 26.6016Z" fill="#D9D9D9"/>
</g>
<defs>
<linearGradient id="paint0_linear" x1="47.9416" y1="4.64215" x2="47.9416" y2="1.78375" gradientUnits="userSpaceOnUse">
<stop stop-color="#808080" stop-opacity="0.25"/>
<stop offset="0.54" stop-color="#808080" stop-opacity="0.12"/>
<stop offset="1" stop-color="#808080" stop-opacity="0.1"/>
</linearGradient>
<linearGradient id="paint1_linear" x1="15510.2" y1="28414.6" x2="15510.2" y2="4892.45" gradientUnits="userSpaceOnUse">
<stop stop-color="#808080" stop-opacity="0.25"/>
<stop offset="0.54" stop-color="#808080" stop-opacity="0.12"/>
<stop offset="1" stop-color="#808080" stop-opacity="0.1"/>
</linearGradient>
<clipPath id="clip0">
<rect width="69" height="42" fill="white"/>
</clipPath>
</defs>
</svg>
