<svg width="48" height="42" viewBox="0 0 48 42" fill="none" xmlns="http://www.w3.org/2000/svg">
<g clip-path="url(#clip0)">
<path d="M9.38507 41.8323C9.8672 41.4316 10.1601 40.7986 10.0833 40.1824C10.0065 39.5662 9.53077 38.9997 8.91375 38.8688C8.29673 38.738 7.59337 39.1002 7.40596 39.693C7.30281 38.5501 7.18396 37.3592 6.56614 36.3859C6.00672 35.5045 5.03778 34.8739 3.98768 34.7611C2.93757 34.6483 1.83194 35.0744 1.17703 35.8896C0.522121 36.7048 0.361768 37.89 0.820451 38.8259C1.15835 39.5154 1.78087 40.0285 2.43312 40.4459C4.51402 41.7777 7.09538 42.2277 9.55158 41.8722L9.38507 41.8323Z" fill="#F2F2F2"/>
<path d="M2.21547 35.098C3.08194 35.7921 3.87683 36.5685 4.58865 37.4158C5.30058 38.2623 5.92736 39.1747 6.46018 40.1402C6.75801 40.6818 7.02555 41.239 7.26162 41.8093C7.30975 41.9253 7.11822 41.9758 7.07063 41.8611C6.6525 40.8556 6.13519 39.893 5.52612 38.9868C4.92002 38.0839 4.22629 37.241 3.4547 36.4699C3.01828 36.034 2.55783 35.622 2.07542 35.2357C1.97654 35.1566 2.11741 35.0195 2.21547 35.098Z" fill="white"/>
<path d="M43.9003 17.3776H37.305C37.2055 17.3775 37.1101 17.3386 37.0397 17.2694C36.9694 17.2002 36.9298 17.1064 36.9297 17.0085V16.2302C36.9298 16.1323 36.9694 16.0385 37.0397 15.9693C37.1101 15.9001 37.2055 15.8612 37.305 15.8611H43.9003C43.9998 15.8612 44.0952 15.9001 44.1655 15.9693C44.2359 16.0385 44.2755 16.1323 44.2756 16.2302V17.0085C44.2755 17.1064 44.2359 17.2002 44.1655 17.2694C44.0952 17.3386 43.9998 17.3775 43.9003 17.3776Z" fill="white"/>
<path d="M43.0105 16.1876L40.1997 13.6949C40.1392 13.6412 40.0614 13.6101 39.9799 13.607C39.8984 13.6039 39.8184 13.6291 39.7538 13.6781L33.6026 15.6757C33.5149 15.7043 33.4424 15.7659 33.4008 15.8471C33.3592 15.9282 33.3521 16.0223 33.381 16.1086L33.6291 16.8477C33.6434 16.8905 33.6661 16.9301 33.696 16.9642C33.7258 16.9984 33.7623 17.0264 33.8032 17.0466C33.8441 17.0669 33.8886 17.079 33.9343 17.0822C33.98 17.0855 34.0258 17.0799 34.0693 17.0657L39.7118 15.2332L42.0138 17.2747C42.0776 17.3316 42.1607 17.3631 42.2468 17.363C42.2529 17.363 42.259 17.3628 42.2652 17.3625C42.3109 17.3603 42.3558 17.3492 42.3971 17.3298C42.4384 17.3105 42.4755 17.2832 42.506 17.2497L43.0359 16.6717C43.0977 16.6041 43.1297 16.5152 43.125 16.4244C43.1202 16.3337 43.079 16.2485 43.0105 16.1876Z" fill="white"/>
<path d="M11.8864 34.8271C11.8011 34.8272 11.7193 34.8606 11.659 34.9199C11.5987 34.9792 11.5648 35.0596 11.5647 35.1435V41.6305C11.5648 41.7144 11.5987 41.7948 11.659 41.8541C11.7193 41.9134 11.8011 41.9468 11.8864 41.9469H12.6777C12.763 41.9468 12.8448 41.9134 12.9051 41.8541C12.9654 41.7948 12.9993 41.7144 12.9994 41.6305V35.1435C12.9993 35.0596 12.9654 34.9792 12.9051 34.9199C12.8448 34.8606 12.763 34.8272 12.6777 34.8271H11.8864Z" fill="white"/>
<path d="M14.3502 41.9996H13.5589C13.4594 41.9995 13.364 41.9606 13.2936 41.8914C13.2233 41.8222 13.1837 41.7283 13.1836 41.6305V35.1435C13.1837 35.0457 13.2233 34.9518 13.2936 34.8826C13.364 34.8134 13.4594 34.7745 13.5589 34.7744H14.3502C14.4497 34.7745 14.5451 34.8134 14.6155 34.8826C14.6858 34.9518 14.7254 35.0457 14.7255 35.1435V41.6305C14.7254 41.7283 14.6858 41.8222 14.6155 41.8914C14.5451 41.9606 14.4497 41.9995 14.3502 41.9996Z" fill="white"/>
<path d="M15.6457 35.6464C15.6457 35.6464 15.9447 38.2907 12.9265 38.2009C9.90826 38.1111 11.0825 35.5128 11.0825 35.5128C11.0825 35.5128 11.7133 35.0253 13.3077 35.4968C14.9021 35.9683 15.6457 35.6464 15.6457 35.6464Z" fill="white"/>
<path d="M14.3486 31.1463C14.1828 31.1466 14.0213 31.0943 13.8882 30.9972C13.755 30.9001 13.6572 30.7633 13.6093 30.6072C13.5614 30.4511 13.5659 30.284 13.6223 30.1306C13.6786 29.9773 13.7837 29.8459 13.9219 29.7559L19.0918 26.3905C19.1329 26.3637 19.179 26.3452 19.2274 26.3359C19.2757 26.3267 19.3255 26.3269 19.3738 26.3365C19.4221 26.3462 19.468 26.3651 19.5088 26.3923C19.5497 26.4194 19.5847 26.4541 19.6119 26.4946L20.0487 27.1436C20.1035 27.2253 20.1231 27.325 20.1033 27.4209C20.0834 27.5168 20.0257 27.601 19.9428 27.6551L14.7729 31.0206C14.6472 31.1027 14.4995 31.1464 14.3486 31.1463Z" fill="white"/>
<path d="M13.4101 28.0309C14.9202 28.0309 16.1444 26.8268 16.1444 25.3415C16.1444 23.8562 14.9202 22.6521 13.4101 22.6521C11.9 22.6521 10.6758 23.8562 10.6758 25.3415C10.6758 26.8268 11.9 28.0309 13.4101 28.0309Z" fill="white"/>
<path d="M13.4122 26.4705C13.5894 26.4656 13.81 26.4596 13.9799 26.3375C14.0305 26.2996 14.0721 26.2513 14.1018 26.196C14.1314 26.1407 14.1484 26.0797 14.1515 26.0172C14.1546 25.9728 14.1472 25.9284 14.1299 25.8873C14.1126 25.8462 14.0858 25.8096 14.0518 25.7803C13.963 25.7065 13.8334 25.6892 13.6937 25.7296L13.8384 24.6894L13.7322 24.6751L13.5621 25.898L13.6508 25.8579C13.7536 25.8115 13.8948 25.7879 13.9825 25.8608C14.0041 25.8799 14.0209 25.9036 14.0316 25.9301C14.0423 25.9566 14.0467 25.9851 14.0443 26.0135C14.0417 26.06 14.029 26.1054 14.007 26.1466C13.9849 26.1878 13.9541 26.2238 13.9167 26.2523C13.7844 26.3473 13.6086 26.3596 13.4092 26.365L13.4122 26.4705Z" fill="white"/>
<path d="M14.9413 24.7791H14.3638V24.8846H14.9413V24.7791Z" fill="white"/>
<path d="M13.1183 24.7791H12.5408V24.8846H13.1183V24.7791Z" fill="white"/>
<path d="M10.648 36.2035C10.648 36.2035 10.4119 28.3086 13.7171 28.8504C17.0222 29.3922 15.6451 37.0162 15.6451 37.0162C15.6451 37.0162 14.9368 38.4095 13.2055 36.8614C11.4743 35.3134 10.648 36.2035 10.648 36.2035Z" fill="white"/>
<path d="M11.8679 23.0699C12.3999 22.7146 13.0714 22.956 13.5883 23.2095C14.0904 23.4558 14.6562 23.7691 15.2242 23.5319C15.4461 23.4393 15.6264 23.2581 15.6578 23.0157C15.6951 22.7269 15.5175 22.4565 15.3201 22.2601C15.1054 22.0582 14.8554 21.8961 14.582 21.7818C14.3141 21.6632 14.0318 21.5787 13.742 21.5305C13.1681 21.433 12.5787 21.4717 12.0231 21.6436C11.4675 21.8154 10.9616 22.1153 10.5476 22.5183C10.1472 22.92 9.83779 23.4006 9.6398 23.9284C9.44181 24.4563 9.35972 25.0193 9.39895 25.5806C9.44413 26.1789 9.63839 26.7889 10.0281 27.2586C10.3938 27.6992 10.9413 28.009 11.5257 28.0349C11.6689 28.0415 11.8124 28.03 11.9526 28.0008C12.0536 27.9796 12.0967 28.1321 11.9954 28.1533C11.3867 28.281 10.7562 28.0913 10.2735 27.7178C9.76529 27.3247 9.45349 26.7295 9.31679 26.1162C9.05518 24.9426 9.38291 23.6797 10.134 22.7401C10.5048 22.2722 10.9852 21.8993 11.5342 21.6533C12.1012 21.4043 12.7206 21.2925 13.3406 21.3273C13.9588 21.3579 14.5586 21.5448 15.0819 21.87C15.55 22.1675 16.0775 22.7983 15.6958 23.3563C15.553 23.565 15.316 23.6921 15.07 23.7444C14.7877 23.7984 14.4956 23.7734 14.227 23.6721C13.6154 23.4597 13.0498 22.9851 12.3653 23.0571C12.2161 23.0723 12.0731 23.1236 11.949 23.2065C11.8632 23.2639 11.7826 23.1269 11.8679 23.0699Z" fill="white"/>
<path d="M35.2291 10.8209C35.1053 10.7427 35.0079 10.6301 34.9491 10.4973C34.8903 10.3646 34.8729 10.2177 34.899 10.0753C34.9251 9.9328 34.9936 9.80115 35.0958 9.69696C35.198 9.59277 35.3293 9.52073 35.4731 9.48994L41.5308 8.1929C41.6211 8.17366 41.7155 8.19044 41.7932 8.23956C41.871 8.28868 41.9257 8.36613 41.9455 8.45491L41.9193 8.46052L41.9455 8.45491L42.1138 9.21542C42.1235 9.25941 42.1244 9.30485 42.1162 9.34914C42.1081 9.39344 42.0912 9.43574 42.0665 9.47361C42.0417 9.51148 42.0097 9.54419 41.9721 9.56986C41.9345 9.59554 41.8921 9.61368 41.8474 9.62325L35.7896 10.9203C35.7634 10.9259 35.7368 10.9302 35.7101 10.933C35.5415 10.9511 35.3716 10.9115 35.2291 10.8209Z" fill="white"/>
<path d="M34.7329 10.391C34.7293 10.3769 34.7261 10.3626 34.7233 10.3482C34.6735 10.0901 34.7644 9.81843 34.9795 9.58311C35.2129 9.33873 35.5178 9.17169 35.852 9.10506L38.6137 8.51075C38.6592 8.50097 38.7062 8.50025 38.752 8.50864C38.7978 8.51704 38.8414 8.53437 38.8803 8.55963C38.9192 8.58488 38.9525 8.61754 38.9783 8.65568C39.0041 8.69381 39.0219 8.73665 39.0306 8.78166L39.2715 10.0301C39.2889 10.1178 39.2706 10.2088 39.2205 10.2833C39.1704 10.3579 39.0925 10.4102 39.0036 10.4288L36.2244 11.0268C36.0991 11.054 35.9712 11.0679 35.8429 11.0681C35.2954 11.0681 34.8395 10.8058 34.7329 10.391Z" fill="white"/>
<path d="M35.2165 7.59763C36.7266 7.59763 37.9508 6.39354 37.9508 4.90823C37.9508 3.42291 36.7266 2.21883 35.2165 2.21883C33.7064 2.21883 32.4822 3.42291 32.4822 4.90823C32.4822 6.39354 33.7064 7.59763 35.2165 7.59763Z" fill="white"/>
<path d="M37.5237 5.87898C37.701 5.87414 37.9216 5.86809 38.0915 5.74599C38.1421 5.70814 38.1837 5.65986 38.2133 5.60455C38.243 5.54923 38.2599 5.4882 38.2631 5.42575C38.2662 5.38137 38.2587 5.33688 38.2414 5.29578C38.2241 5.25468 38.1974 5.21807 38.1633 5.18881C38.0746 5.11504 37.945 5.09774 37.8053 5.13811L37.95 4.09791L37.8438 4.0836L37.6736 5.30648L37.7624 5.26645C37.8652 5.22005 38.0064 5.19643 38.0941 5.26936C38.1157 5.28842 38.1324 5.31211 38.1432 5.3386C38.1539 5.36508 38.1582 5.39363 38.1559 5.42205C38.1533 5.46853 38.1406 5.51391 38.1185 5.55511C38.0965 5.59631 38.0657 5.63237 38.0283 5.66081C37.896 5.75583 37.7202 5.76808 37.5208 5.77357L37.5237 5.87898Z" fill="white"/>
<path d="M37.2301 4.18764H36.6526V4.2931H37.2301V4.18764Z" fill="white"/>
<path d="M35.0251 2.21086C35.005 1.89295 34.9156 1.583 34.7631 1.302C34.6106 1.021 34.3985 0.775516 34.1412 0.582162C33.8753 0.388492 33.5684 0.256259 33.2434 0.195292C32.9184 0.134324 32.5836 0.146191 32.2639 0.230009C31.9462 0.311195 31.6515 0.46225 31.4018 0.671786C31.1521 0.881321 30.9541 1.14387 30.8226 1.43964C30.6902 1.73321 30.6242 2.05152 30.629 2.37262C30.6436 2.7218 30.7318 3.0642 30.888 3.37809C31.0493 3.72361 31.2526 4.04776 31.4292 4.38552C31.6032 4.71858 31.7532 5.06319 31.8783 5.41683C32.1329 6.13739 32.2831 6.88961 32.3245 7.65134C32.3901 8.85212 32.2733 10.6052 30.8952 11.066C30.5447 11.1832 30.1666 11.205 29.7992 11.204C29.4122 11.2087 29.0262 11.1642 28.6508 11.0717C28.0001 10.9008 27.3825 10.4996 27.1052 9.87617C27.0414 9.73221 26.9985 9.58007 26.978 9.42429C26.9723 9.38158 27.0191 9.3456 27.0584 9.34519C27.0796 9.34569 27.0998 9.35418 27.1148 9.36891C27.1297 9.38364 27.1384 9.40347 27.1389 9.42429C27.2286 10.0886 27.7914 10.5981 28.4025 10.8271C28.7596 10.9544 29.1347 11.0258 29.5142 11.0386C29.892 11.0574 30.2843 11.0545 30.6542 10.969C30.9835 10.8989 31.2831 10.7314 31.5127 10.489C31.7175 10.2571 31.8702 9.98539 31.9609 9.69152C32.1785 9.03842 32.2013 8.32034 32.163 7.63963C32.1198 6.8804 31.9664 6.13115 31.7074 5.41463C31.5766 5.05287 31.4189 4.7011 31.2354 4.36219C31.0562 4.03069 30.8572 3.70857 30.7063 3.36304C30.5589 3.04545 30.4778 2.70198 30.468 2.35301C30.4668 2.03072 30.532 1.71154 30.6597 1.41472C30.7852 1.11673 30.9734 0.848212 31.2119 0.626811C31.4503 0.405411 31.7338 0.236133 32.0435 0.130092C32.3586 0.0222095 32.6931 -0.0196808 33.0257 0.0071104C33.3582 0.0339016 33.6814 0.128782 33.9744 0.285663C34.2532 0.44328 34.4974 0.653679 34.693 0.904698C34.8886 1.15572 35.0317 1.44238 35.114 1.74811C35.154 1.89954 35.1781 2.0546 35.1859 2.21086C35.1912 2.31261 35.0304 2.31233 35.0251 2.21086Z" fill="white"/>
<path d="M34.4903 2.26641C34.4464 1.973 34.2969 1.70481 34.0691 1.5106C33.8268 1.3109 33.5163 1.20953 33.2008 1.22713C33.0973 1.23222 33.0976 1.074 33.2008 1.06893C33.5437 1.05372 33.8804 1.16303 34.1468 1.37607C34.4131 1.58911 34.5906 1.89101 34.6454 2.22436C34.6609 2.32395 34.5059 2.36689 34.4903 2.26641Z" fill="white"/>
<path d="M34.1523 2.27557C34.1278 2.20253 34.1338 2.1229 34.169 2.0542C34.2041 1.9855 34.2656 1.93336 34.3399 1.90925L35.1035 1.66123C35.1778 1.63712 35.2588 1.643 35.3286 1.6776C35.3985 1.71219 35.4515 1.77266 35.476 1.8457C35.5005 1.91874 35.4945 1.99836 35.4594 2.06706C35.4242 2.13576 35.3627 2.18791 35.2884 2.21202L34.5248 2.46004C34.488 2.47199 34.4492 2.4767 34.4106 2.4739C34.372 2.4711 34.3343 2.46084 34.2997 2.44371C34.2651 2.42658 34.2343 2.40292 34.209 2.37407C34.1837 2.34522 34.1644 2.31175 34.1523 2.27557Z" fill="white"/>
<path d="M40.116 5.92988C40.0667 5.94013 40.0212 5.96385 39.985 5.99831C39.9487 6.03278 39.923 6.0766 39.9109 6.12475C39.8988 6.1729 39.9007 6.22343 39.9165 6.27055C39.9322 6.31768 39.9612 6.35948 40 6.39118L41.1801 7.3556C41.1973 7.36996 41.2116 7.38747 41.222 7.40717C41.2318 7.42708 41.2372 7.44873 41.2381 7.4708L41.3118 9.23951C41.3131 9.29738 41.3342 9.35313 41.3716 9.39779C41.409 9.44246 41.4607 9.47345 41.5182 9.48578L41.5202 9.48625C41.577 9.4999 41.6369 9.49448 41.6902 9.47083C41.7435 9.44718 41.7872 9.40667 41.8144 9.35575L42.2401 8.59221C42.2543 8.56707 42.2753 8.54622 42.3007 8.5319C42.3261 8.51757 42.3549 8.51031 42.3842 8.51089C42.4057 8.51099 42.427 8.51549 42.4467 8.52408C42.4664 8.53267 42.4841 8.54518 42.4986 8.56081L44.5413 10.7047C44.5708 10.7358 44.6075 10.7594 44.6484 10.7734C44.6892 10.7875 44.7329 10.7915 44.7756 10.7852C44.8183 10.779 44.8588 10.7628 44.8937 10.7379C44.9286 10.7131 44.957 10.6804 44.9763 10.6425L47.9716 4.74839C47.9942 4.70402 48.0037 4.65426 47.9988 4.60483C47.994 4.5554 47.9751 4.50832 47.9443 4.469C47.9135 4.42967 47.872 4.3997 47.8246 4.38253C47.7772 4.36537 47.7259 4.3617 47.6765 4.37195L47.5795 4.39189L40.116 5.92988ZM40.0682 6.31018C40.0449 6.2911 40.0276 6.26597 40.0182 6.23766C40.0088 6.20936 40.0077 6.17902 40.015 6.15013C40.0223 6.12124 40.0378 6.09495 40.0596 6.07429C40.0814 6.05363 40.1087 6.03942 40.1383 6.03329L47.5995 4.49585L47.6988 4.47535C47.7284 4.46936 47.7591 4.47166 47.7874 4.48199C47.8157 4.49232 47.8405 4.51027 47.859 4.53379C47.8774 4.55731 47.8888 4.58546 47.8918 4.61502C47.8948 4.64459 47.8892 4.67439 47.8759 4.70102L44.8806 10.5951C44.869 10.6179 44.852 10.6375 44.831 10.6524C44.81 10.6673 44.7856 10.677 44.76 10.6807C44.7344 10.6844 44.7082 10.6819 44.6838 10.6735C44.6594 10.6651 44.6373 10.651 44.6196 10.6324L42.5769 8.48856C42.5569 8.46712 42.5334 8.44922 42.5072 8.43566L47.6977 4.732C47.7181 4.71774 47.7328 4.69691 47.7393 4.67311C47.7457 4.64932 47.7435 4.62406 47.733 4.60169C47.7225 4.57933 47.7044 4.56128 47.6819 4.55065C47.6593 4.54002 47.6336 4.53749 47.6093 4.54349C47.6034 4.54489 47.5976 4.54685 47.592 4.54935L41.2898 7.31633C41.2776 7.30093 41.2637 7.28693 41.2483 7.2746L40.0682 6.31018Z" fill="white"/>
<path d="M40.116 5.92988C40.0667 5.94013 40.0212 5.96385 39.985 5.99831C39.9487 6.03278 39.923 6.0766 39.9109 6.12475C39.8988 6.1729 39.9007 6.22343 39.9165 6.27055C39.9322 6.31768 39.9612 6.35948 40 6.39118L41.1801 7.3556C41.1973 7.36996 41.2116 7.38747 41.222 7.40717C41.2318 7.42708 41.2372 7.44873 41.2381 7.4708L41.3118 9.23951C41.3131 9.29738 41.3342 9.35313 41.3716 9.39779C41.409 9.44246 41.4607 9.47345 41.5182 9.48578L41.5202 9.48625C41.577 9.4999 41.6369 9.49448 41.6902 9.47083C41.7435 9.44718 41.7872 9.40667 41.8144 9.35575L42.2401 8.59221C42.2543 8.56707 42.2753 8.54622 42.3007 8.5319C42.3261 8.51757 42.3549 8.51031 42.3842 8.51089C42.4057 8.51099 42.427 8.51549 42.4467 8.52408C42.4664 8.53267 42.4841 8.54518 42.4986 8.56081L44.5413 10.7047C44.5708 10.7358 44.6075 10.7594 44.6484 10.7734C44.6892 10.7875 44.7329 10.7915 44.7756 10.7852C44.8183 10.779 44.8588 10.7628 44.8937 10.7379C44.9286 10.7131 44.957 10.6804 44.9763 10.6425L47.9716 4.74839C47.9942 4.70402 48.0037 4.65426 47.9988 4.60483C47.994 4.5554 47.9751 4.50832 47.9443 4.469C47.9135 4.42967 47.872 4.3997 47.8246 4.38253C47.7772 4.36537 47.7259 4.3617 47.6765 4.37195L47.5795 4.39189L40.116 5.92988ZM40.0682 6.31018C40.0449 6.2911 40.0276 6.26597 40.0182 6.23766C40.0088 6.20936 40.0077 6.17902 40.015 6.15013C40.0223 6.12124 40.0378 6.09495 40.0596 6.07429C40.0814 6.05363 40.1087 6.03942 40.1383 6.03329L47.5995 4.49585L47.6988 4.47535C47.7284 4.46936 47.7591 4.47166 47.7874 4.48199C47.8157 4.49232 47.8405 4.51027 47.859 4.53379C47.8774 4.55731 47.8888 4.58546 47.8918 4.61502C47.8948 4.64459 47.8892 4.67439 47.8759 4.70102L44.8806 10.5951C44.869 10.6179 44.852 10.6375 44.831 10.6524C44.81 10.6673 44.7856 10.677 44.76 10.6807C44.7344 10.6844 44.7082 10.6819 44.6838 10.6735C44.6594 10.6651 44.6373 10.651 44.6196 10.6324L42.5769 8.48856C42.5569 8.46712 42.5333 8.44922 42.5072 8.43566C42.4698 8.41592 42.428 8.40546 42.3856 8.40519C42.3796 8.40494 42.3735 8.40519 42.3674 8.40544C42.3219 8.40776 42.2772 8.42138 42.2386 8.4452C42.1999 8.46903 42.1682 8.50216 42.1462 8.54146L41.7204 9.30552C41.7042 9.33619 41.6778 9.36056 41.6457 9.37468C41.6136 9.3888 41.5776 9.39183 41.5435 9.38329L41.5425 9.38306C41.5079 9.3759 41.4768 9.35737 41.4543 9.33052C41.4318 9.30367 41.4193 9.27011 41.4188 9.23533L41.3452 7.46663C41.3446 7.44794 41.3419 7.42937 41.3371 7.41128C41.3326 7.39391 41.3262 7.37655 41.3181 7.36052C41.3103 7.34484 41.3008 7.33002 41.2898 7.31633C41.2776 7.30093 41.2637 7.28693 41.2483 7.2746L40.0682 6.31018Z" fill="white"/>
<path d="M41.2897 7.31632L47.592 4.54934C47.5975 4.54684 47.6033 4.54488 47.6093 4.54349C47.6336 4.53748 47.6592 4.54001 47.6818 4.55064C47.7044 4.56127 47.7225 4.57932 47.733 4.60169C47.7435 4.62405 47.7457 4.64931 47.7392 4.67311C47.7328 4.6969 47.7181 4.71773 47.6976 4.73199L42.5071 8.43565L42.4156 8.50114L42.3528 8.41572L42.3668 8.40532L47.6344 4.64646L41.3371 7.41076L41.3096 7.42298L41.2659 7.32667L41.2897 7.31632Z" fill="white"/>
<path d="M33.4157 15.7124C33.3375 15.7125 33.2626 15.7431 33.2073 15.7975C33.152 15.8519 33.1209 15.9256 33.1208 16.0025V17.0571C33.1209 17.134 33.152 17.2077 33.2073 17.2621C33.2626 17.3165 33.3375 17.3471 33.4157 17.3472H36.847C36.9252 17.3471 37.0002 17.3165 37.0554 17.2621C37.1107 17.2077 37.1418 17.134 37.1419 17.0571V16.0025C37.1418 15.9256 37.1107 15.8519 37.0554 15.7975C37.0002 15.7431 36.9252 15.7125 36.847 15.7124H33.4157Z" fill="white"/>
<path d="M33.0111 10.3626C32.8473 10.8297 32.8168 11.3319 32.9228 11.8149C33.1955 13.1298 33.094 14.6842 32.8259 16.3452C32.8259 16.52 32.9497 16.6616 33.1023 16.6616H37.2944C37.447 16.6616 37.5708 16.52 37.5708 16.3452V11.4147C37.5708 9.95763 36.5638 8.76533 35.3043 8.70205C35.2693 8.69994 35.2338 8.69888 35.1983 8.69888C34.2158 8.69888 33.3709 9.38601 33.0111 10.3626Z" fill="white"/>
<path d="M34.3462 16.7619V10.6641C34.3462 10.47 34.4246 10.2838 34.5641 10.1465C34.7037 10.0093 34.893 9.93214 35.0903 9.93214C35.2877 9.93214 35.477 10.0093 35.6165 10.1465C35.7561 10.2838 35.8345 10.47 35.8345 10.6641V16.7619C35.8344 16.8527 35.7977 16.9399 35.7323 17.0041C35.667 17.0684 35.5784 17.1045 35.486 17.1046H34.6947C34.6023 17.1045 34.5137 17.0684 34.4484 17.0041C34.383 16.9399 34.3463 16.8527 34.3462 16.7619Z" fill="white"/>
<path d="M35.6193 12.3943L34.4945 12.3456C34.4022 12.3415 34.3153 12.3016 34.253 12.2345C34.1906 12.1675 34.1577 12.0789 34.1617 11.9881L34.2407 10.2232C34.2457 10.1054 34.2743 9.98977 34.3248 9.88285C34.3753 9.77593 34.4468 9.67986 34.5351 9.60014C34.6234 9.52042 34.7268 9.45862 34.8394 9.41828C34.9521 9.37793 35.0717 9.35983 35.1914 9.36502C35.3112 9.3702 35.4287 9.39857 35.5373 9.4485C35.6459 9.49843 35.7434 9.56893 35.8243 9.65598C35.9051 9.74302 35.9677 9.8449 36.0085 9.95577C36.0492 10.0666 36.0674 10.1843 36.0618 10.3021L35.9828 12.067C35.9789 12.1551 35.9405 12.2384 35.8757 12.2994C35.811 12.3604 35.7248 12.3945 35.6351 12.3946C35.6298 12.3946 35.6246 12.3945 35.6193 12.3943Z" fill="white"/>
<path d="M37.5709 13.524C37.7041 13.524 37.8121 13.1816 37.8121 12.7594C37.8121 12.3371 37.7041 11.9947 37.5709 11.9947C37.4376 11.9947 37.3296 12.3371 37.3296 12.7594C37.3296 13.1816 37.4376 13.524 37.5709 13.524Z" fill="white"/>
<path d="M24.3489 22.2777C25.0891 22.2777 25.6892 21.6875 25.6892 20.9594C25.6892 20.2313 25.0891 19.6411 24.3489 19.6411C23.6086 19.6411 23.0085 20.2313 23.0085 20.9594C23.0085 21.6875 23.6086 22.2777 24.3489 22.2777Z" fill="white"/>
<path d="M37.6037 22.2777H27.3098C27.196 22.2777 27.0869 22.2333 27.0065 22.1542C26.926 22.075 26.8809 21.9677 26.8809 21.8559C26.8809 21.744 26.926 21.6367 27.0065 21.5576C27.0869 21.4784 27.196 21.434 27.3098 21.434H37.6037C37.7174 21.434 37.8265 21.4784 37.907 21.5576C37.9874 21.6367 38.0326 21.744 38.0326 21.8559C38.0326 21.9677 37.9874 22.075 37.907 22.1542C37.8265 22.2333 37.7174 22.2777 37.6037 22.2777Z" fill="white"/>
<path d="M34.8158 20.4848H27.3098C27.196 20.4848 27.0869 20.4404 27.0065 20.3612C26.926 20.2821 26.8809 20.1748 26.8809 20.0629C26.8809 19.951 26.926 19.8437 27.0065 19.7646C27.0869 19.6855 27.196 19.6411 27.3098 19.6411H34.8158C34.9295 19.6411 35.0386 19.6855 35.119 19.7646C35.1995 19.8437 35.2447 19.951 35.2447 20.0629C35.2447 20.1748 35.1995 20.2821 35.119 20.3612C35.0386 20.4404 34.9295 20.4848 34.8158 20.4848Z" fill="white"/>
<path d="M24.3489 27.2874C25.0891 27.2874 25.6892 26.6972 25.6892 25.9691C25.6892 25.241 25.0891 24.6507 24.3489 24.6507C23.6086 24.6507 23.0085 25.241 23.0085 25.9691C23.0085 26.6972 23.6086 27.2874 24.3489 27.2874Z" fill="white"/>
<path d="M37.6037 27.2874H27.3098C27.196 27.2874 27.0869 27.243 27.0065 27.1638C26.926 27.0847 26.8809 26.9774 26.8809 26.8655C26.8809 26.7536 26.926 26.6463 27.0065 26.5672C27.0869 26.4881 27.196 26.4437 27.3098 26.4437H37.6037C37.7174 26.4437 37.8265 26.4881 37.907 26.5672C37.9874 26.6463 38.0326 26.7536 38.0326 26.8655C38.0326 26.9774 37.9874 27.0847 37.907 27.1638C37.8265 27.243 37.7174 27.2874 37.6037 27.2874Z" fill="white"/>
<path d="M34.8158 25.4945H27.3098C27.196 25.4945 27.0869 25.45 27.0065 25.3709C26.926 25.2918 26.8809 25.1845 26.8809 25.0726C26.8809 24.9607 26.926 24.8534 27.0065 24.7743C27.0869 24.6952 27.196 24.6507 27.3098 24.6507H34.8158C34.9295 24.6507 35.0386 24.6952 35.119 24.7743C35.1995 24.8534 35.2447 24.9607 35.2447 25.0726C35.2447 25.1845 35.1995 25.2918 35.119 25.3709C35.0386 25.45 34.9295 25.4945 34.8158 25.4945Z" fill="white"/>
<path d="M24.3489 32.3498C25.0891 32.3498 25.6892 31.7596 25.6892 31.0315C25.6892 30.3034 25.0891 29.7131 24.3489 29.7131C23.6086 29.7131 23.0085 30.3034 23.0085 31.0315C23.0085 31.7596 23.6086 32.3498 24.3489 32.3498Z" fill="white"/>
<path d="M37.6037 32.3498H27.3098C27.196 32.3498 27.0869 32.3053 27.0065 32.2262C26.926 32.1471 26.8809 32.0398 26.8809 31.9279C26.8809 31.816 26.926 31.7087 27.0065 31.6296C27.0869 31.5505 27.196 31.5061 27.3098 31.5061H37.6037C37.7174 31.5061 37.8265 31.5505 37.907 31.6296C37.9874 31.7087 38.0326 31.816 38.0326 31.9279C38.0326 32.0398 37.9874 32.1471 37.907 32.2262C37.8265 32.3053 37.7174 32.3498 37.6037 32.3498Z" fill="white"/>
<path d="M34.8158 30.5569H27.3098C27.196 30.5569 27.0869 30.5124 27.0065 30.4333C26.926 30.3542 26.8809 30.2469 26.8809 30.135C26.8809 30.0231 26.926 29.9158 27.0065 29.8367C27.0869 29.7576 27.196 29.7131 27.3098 29.7131H34.8158C34.9295 29.7131 35.0386 29.7576 35.119 29.8367C35.1995 29.9158 35.2447 30.0231 35.2447 30.135C35.2447 30.2469 35.1995 30.3542 35.119 30.4333C35.0386 30.5124 34.9295 30.5569 34.8158 30.5569Z" fill="white"/>
<path d="M41.1898 34.7228H19.8514C19.6097 34.7225 19.3781 34.628 19.2072 34.4599C19.0363 34.2919 18.9402 34.064 18.9399 33.8263V18.1645C18.9402 17.9269 19.0363 17.699 19.2072 17.5309C19.3781 17.3629 19.6097 17.2683 19.8514 17.2681H41.1898C41.4314 17.2683 41.6631 17.3629 41.834 17.5309C42.0048 17.699 42.101 17.9269 42.1012 18.1645V33.8263C42.101 34.064 42.0048 34.2919 41.834 34.4599C41.6631 34.628 41.4314 34.7225 41.1898 34.7228ZM19.8514 17.3735C19.6382 17.3738 19.4338 17.4572 19.283 17.6055C19.1322 17.7538 19.0474 17.9548 19.0472 18.1645V33.8263C19.0474 34.0361 19.1322 34.2371 19.283 34.3854C19.4338 34.5337 19.6382 34.6171 19.8514 34.6173H41.1898C41.403 34.6171 41.6074 34.5337 41.7582 34.3854C41.909 34.2371 41.9938 34.0361 41.994 33.8263V18.1645C41.9938 17.9548 41.909 17.7538 41.7582 17.6055C41.6074 17.4572 41.403 17.3738 41.1898 17.3735H19.8514Z" fill="white"/>
<path d="M19.3151 20.4848C20.9733 20.4848 22.3175 19.1627 22.3175 17.5317C22.3175 15.9008 20.9733 14.5787 19.3151 14.5787C17.657 14.5787 16.3127 15.9008 16.3127 17.5317C16.3127 19.1627 17.657 20.4848 19.3151 20.4848Z" fill="white"/>
<path d="M19.0176 18.6582C18.9501 18.6584 18.8843 18.6369 18.8303 18.597L18.8269 18.5946L18.1214 18.0632C18.0887 18.0386 18.0613 18.0079 18.0406 17.9728C18.02 17.9378 18.0066 17.8991 18.0012 17.8589C17.9958 17.8188 17.9985 17.778 18.0092 17.7389C18.0198 17.6998 18.0381 17.6631 18.0632 17.631C18.0882 17.5988 18.1194 17.5718 18.1551 17.5516C18.1907 17.5313 18.2301 17.5181 18.2709 17.5128C18.3117 17.5075 18.3532 17.5101 18.3929 17.5206C18.4327 17.5311 18.47 17.5491 18.5027 17.5737L18.9597 17.9184L20.0397 16.5331C20.0647 16.5009 20.096 16.474 20.1316 16.4537C20.1673 16.4334 20.2066 16.4203 20.2474 16.415C20.2882 16.4097 20.3297 16.4124 20.3695 16.4228C20.4093 16.4333 20.4465 16.4514 20.4792 16.476L20.4725 16.485L20.4794 16.4761C20.5453 16.5259 20.5884 16.5994 20.5993 16.6805C20.6101 16.7615 20.5879 16.8435 20.5374 16.9084L19.267 18.5379C19.2377 18.5755 19.1999 18.6059 19.1566 18.6267C19.1134 18.6476 19.0658 18.6584 19.0176 18.6582Z" fill="white"/>
<path d="M19.2921 35.1888C19.2393 35.1889 19.1871 35.1778 19.139 35.1565L13.4825 32.6606C13.3901 32.6199 13.3067 32.5617 13.2371 32.4892C13.1676 32.4168 13.1132 32.3316 13.0771 32.2385C13.0411 32.1454 13.024 32.0463 13.0269 31.9467C13.0298 31.8471 13.0527 31.7491 13.0941 31.6582C13.1356 31.5673 13.1949 31.4853 13.2685 31.4169C13.3422 31.3486 13.4289 31.2952 13.5236 31.2598C13.6182 31.2244 13.7191 31.2077 13.8203 31.2106C13.9216 31.2135 14.0212 31.2361 14.1136 31.2769L19.7701 33.7728C19.8151 33.7926 19.8557 33.821 19.8895 33.8562C19.9233 33.8915 19.9497 33.9329 19.9673 33.9782C19.9848 34.0235 19.9931 34.0718 19.9917 34.1202C19.9902 34.1687 19.9791 34.2164 19.959 34.2606L19.6351 34.9708C19.6053 35.0357 19.5571 35.0909 19.4963 35.1295C19.4354 35.1682 19.3645 35.1888 19.2921 35.1888Z" fill="white"/>
<path d="M20.4806 42H0.0536141C0.0393947 42 0.0257577 41.9944 0.0157032 41.9846C0.00564857 41.9747 0 41.9612 0 41.9473C0 41.9333 0.00564857 41.9199 0.0157032 41.91C0.0257577 41.9001 0.0393947 41.8945 0.0536141 41.8945H20.4806C20.4948 41.8945 20.5084 41.9001 20.5185 41.91C20.5285 41.9199 20.5342 41.9333 20.5342 41.9473C20.5342 41.9612 20.5285 41.9747 20.5185 41.9846C20.5084 41.9944 20.4948 42 20.4806 42Z" fill="white"/>
</g>
<defs>
<clipPath id="clip0">
<rect width="48" height="42" fill="white"/>
</clipPath>
</defs>
</svg>
