<svg width="49" height="51" viewBox="0 0 49 51" fill="none" xmlns="http://www.w3.org/2000/svg">
<g clip-path="url(#clip0)">
<path d="M34.1788 6.22134L34.085 6.31935L40.5264 12.4146L40.6203 12.3166L34.1788 6.22134Z" fill="#E6E6E6"/>
<path d="M40.6305 11.6557L40.4945 11.6639L40.5356 12.3298L39.8643 12.3218L39.8628 12.4571L40.6804 12.4667L40.6305 11.6557Z" fill="#E6E6E6"/>
<path d="M34.8426 6.17878L34.8411 6.31414L34.1699 6.30612L34.2109 6.97204L34.0748 6.98021L34.0251 6.16907L34.8426 6.17878Z" fill="#E6E6E6"/>
<path d="M37.3528 10.0622C37.7663 10.0622 38.1015 9.72899 38.1015 9.31799C38.1015 8.90699 37.7663 8.57381 37.3528 8.57381C36.9392 8.57381 36.604 8.90699 36.604 9.31799C36.604 9.72899 36.9392 10.0622 37.3528 10.0622Z" fill="#E6E6E6"/>
<path d="M14.9572 6.22136L8.51575 12.3166L8.60963 12.4146L15.0511 6.31937L14.9572 6.22136Z" fill="#E6E6E6"/>
<path d="M8.45569 12.4667L9.27328 12.4571L9.27173 12.3218L8.60051 12.3298L8.64156 11.6639L8.50554 11.6557L8.45569 12.4667Z" fill="#E6E6E6"/>
<path d="M15.1111 6.16907L15.0613 6.98021L14.9253 6.97204L14.9663 6.30612L14.295 6.31414L14.2936 6.17878L15.1111 6.16907Z" fill="#E6E6E6"/>
<path d="M11.7834 10.0622C12.1969 10.0622 12.5322 9.72899 12.5322 9.31799C12.5322 8.90699 12.1969 8.57381 11.7834 8.57381C11.3699 8.57381 11.0347 8.90699 11.0347 9.31799C11.0347 9.72899 11.3699 10.0622 11.7834 10.0622Z" fill="#E6E6E6"/>
<path d="M30.1498 15.4249H18.8504C18.688 15.4247 18.5323 15.3605 18.4174 15.2464C18.3026 15.1322 18.238 14.9774 18.2378 14.816V0.608877C18.238 0.447449 18.3026 0.292687 18.4174 0.17854C18.5323 0.0643928 18.688 0.000183833 18.8504 0H30.1498C30.3122 0.000183833 30.4679 0.0643928 30.5828 0.17854C30.6976 0.292687 30.7622 0.447449 30.7624 0.608877V14.816C30.7622 14.9774 30.6976 15.1322 30.5828 15.2464C30.4679 15.3605 30.3122 15.4247 30.1498 15.4249ZM18.8504 0.135306C18.7241 0.135447 18.603 0.185387 18.5136 0.274168C18.4243 0.362949 18.3741 0.483321 18.3739 0.608877V14.816C18.3741 14.9416 18.4243 15.0619 18.5136 15.1507C18.603 15.2395 18.7241 15.2895 18.8504 15.2896H30.1498C30.2761 15.2895 30.3972 15.2395 30.4865 15.1507C30.5759 15.0619 30.6261 14.9416 30.6263 14.816V0.608877C30.6261 0.483321 30.5759 0.362949 30.4865 0.274168C30.3972 0.185387 30.2761 0.135447 30.1498 0.135306H18.8504Z" fill="white"/>
<path d="M23.5599 6.82902H21.0727C20.9915 6.82893 20.9136 6.79683 20.8562 6.73975C20.7987 6.68268 20.7664 6.6053 20.7664 6.52458V3.6074C20.7664 3.52669 20.7987 3.4493 20.8562 3.39223C20.9136 3.33516 20.9915 3.30305 21.0727 3.30296H23.5599C23.6411 3.30305 23.719 3.33516 23.7764 3.39223C23.8338 3.4493 23.8661 3.52669 23.8662 3.6074V6.52458C23.8661 6.60529 23.8338 6.68268 23.7764 6.73975C23.719 6.79683 23.6411 6.82893 23.5599 6.82902Z" fill="white"/>
<path d="M28.3929 8.18207H25.9057C25.8245 8.18198 25.7466 8.14988 25.6892 8.09281C25.6318 8.03573 25.5995 7.95835 25.5994 7.87764V4.96046C25.5995 4.87974 25.6318 4.80236 25.6892 4.74529C25.7466 4.68821 25.8245 4.65611 25.9057 4.65602H28.3929C28.4741 4.65611 28.552 4.68821 28.6094 4.74529C28.6668 4.80236 28.6991 4.87974 28.6992 4.96046V7.87764C28.6991 7.95835 28.6668 8.03573 28.6094 8.09281C28.552 8.14988 28.4741 8.18198 28.3929 8.18207Z" fill="white"/>
<path d="M24.513 12.3089H22.0258C21.9446 12.3088 21.8667 12.2767 21.8093 12.2196C21.7519 12.1626 21.7196 12.0852 21.7195 12.0045V9.08729C21.7196 9.00658 21.7519 8.92919 21.8093 8.87212C21.8667 8.81505 21.9446 8.78294 22.0258 8.78285H24.513C24.5942 8.78294 24.6721 8.81505 24.7295 8.87212C24.7869 8.92919 24.8192 9.00658 24.8193 9.08729V12.0045C24.8192 12.0852 24.7869 12.1626 24.7295 12.2196C24.6721 12.2767 24.5942 12.3088 24.513 12.3089Z" fill="white"/>
<path d="M48.3873 30.0333H37.088C36.9255 30.0332 36.7698 29.969 36.655 29.8548C36.5401 29.7407 36.4755 29.5859 36.4753 29.4245V15.2173C36.4755 15.0559 36.5401 14.9011 36.655 14.787C36.7698 14.6728 36.9255 14.6086 37.088 14.6084H48.3873C48.5497 14.6086 48.7055 14.6728 48.8203 14.787C48.9352 14.9011 48.9998 15.0559 48.9999 15.2173V29.4245C48.9998 29.5859 48.9352 29.7407 48.8203 29.8548C48.7055 29.969 48.5497 30.0332 48.3873 30.0333ZM37.088 14.7437C36.9616 14.7439 36.8405 14.7938 36.7512 14.8826C36.6619 14.9714 36.6116 15.0918 36.6115 15.2173V29.4245C36.6116 29.55 36.6619 29.6704 36.7512 29.7592C36.8405 29.848 36.9616 29.8979 37.088 29.898H48.3873C48.5137 29.8979 48.6348 29.848 48.7241 29.7592C48.8134 29.6704 48.8637 29.55 48.8638 29.4245V15.2173C48.8637 15.0918 48.8134 14.9714 48.7241 14.8826C48.6348 14.7938 48.5137 14.7439 48.3873 14.7437H37.088Z" fill="white"/>
<path d="M44.6776 17.7543H40.7977C40.7255 17.7543 40.6562 17.7258 40.6051 17.675C40.5541 17.6243 40.5254 17.5555 40.5254 17.4837C40.5254 17.4119 40.5541 17.3431 40.6051 17.2923C40.6562 17.2416 40.7255 17.2131 40.7977 17.2131H44.6776C44.7498 17.2131 44.819 17.2416 44.8701 17.2923C44.9212 17.3431 44.9498 17.4119 44.9498 17.4837C44.9498 17.5555 44.9212 17.6243 44.8701 17.675C44.819 17.7258 44.7498 17.7543 44.6776 17.7543Z" fill="white"/>
<path d="M46.5836 20.3251H38.8919C38.8561 20.3252 38.8206 20.3182 38.7875 20.3047C38.7545 20.2911 38.7244 20.2712 38.6991 20.246C38.6737 20.2209 38.6536 20.191 38.6399 20.1582C38.6262 20.1253 38.6191 20.0901 38.6191 20.0545C38.6191 20.0189 38.6262 19.9837 38.6399 19.9508C38.6536 19.918 38.6737 19.8881 38.6991 19.863C38.7244 19.8379 38.7545 19.8179 38.7875 19.8044C38.8206 19.7908 38.8561 19.7838 38.8919 19.7839H46.5836C46.6194 19.7838 46.6549 19.7908 46.688 19.8044C46.721 19.8179 46.7511 19.8379 46.7765 19.863C46.8018 19.8881 46.8219 19.918 46.8356 19.9508C46.8493 19.9837 46.8564 20.0189 46.8564 20.0545C46.8564 20.0901 46.8493 20.1253 46.8356 20.1582C46.8219 20.191 46.8018 20.2209 46.7765 20.246C46.7511 20.2712 46.721 20.2911 46.688 20.3047C46.6549 20.3182 46.6194 20.3252 46.5836 20.3251Z" fill="white"/>
<path d="M46.5836 21.7458H38.8919C38.8561 21.7459 38.8206 21.7389 38.7875 21.7254C38.7545 21.7118 38.7244 21.6919 38.6991 21.6667C38.6737 21.6416 38.6536 21.6117 38.6399 21.5789C38.6262 21.546 38.6191 21.5108 38.6191 21.4752C38.6191 21.4396 38.6262 21.4044 38.6399 21.3715C38.6536 21.3387 38.6737 21.3088 38.6991 21.2837C38.7244 21.2586 38.7545 21.2386 38.7875 21.2251C38.8206 21.2115 38.8561 21.2045 38.8919 21.2046H46.5836C46.6194 21.2045 46.6549 21.2115 46.688 21.2251C46.721 21.2386 46.7511 21.2586 46.7765 21.2837C46.8018 21.3088 46.8219 21.3387 46.8356 21.3715C46.8493 21.4044 46.8564 21.4396 46.8564 21.4752C46.8564 21.5108 46.8493 21.546 46.8356 21.5789C46.8219 21.6117 46.8018 21.6416 46.7765 21.6667C46.7511 21.6919 46.721 21.7118 46.688 21.7254C46.6549 21.7389 46.6194 21.7459 46.5836 21.7458Z" fill="white"/>
<path d="M46.5836 23.1665H38.8919C38.8561 23.1666 38.8206 23.1597 38.7875 23.1461C38.7545 23.1325 38.7244 23.1126 38.6991 23.0875C38.6737 23.0623 38.6536 23.0325 38.6399 22.9996C38.6262 22.9667 38.6191 22.9315 38.6191 22.8959C38.6191 22.8604 38.6262 22.8251 38.6399 22.7923C38.6536 22.7594 38.6737 22.7296 38.6991 22.7044C38.7244 22.6793 38.7545 22.6594 38.7875 22.6458C38.8206 22.6322 38.8561 22.6253 38.8919 22.6253H46.5836C46.6194 22.6253 46.6549 22.6322 46.688 22.6458C46.721 22.6594 46.7511 22.6793 46.7765 22.7044C46.8018 22.7296 46.8219 22.7594 46.8356 22.7923C46.8493 22.8251 46.8564 22.8604 46.8564 22.8959C46.8564 22.9315 46.8493 22.9667 46.8356 22.9996C46.8219 23.0325 46.8018 23.0623 46.7765 23.0875C46.7511 23.1126 46.721 23.1325 46.688 23.1461C46.6549 23.1597 46.6194 23.1666 46.5836 23.1665Z" fill="white"/>
<path d="M46.5836 24.5873H38.8919C38.8561 24.5873 38.8206 24.5804 38.7875 24.5668C38.7545 24.5532 38.7244 24.5333 38.6991 24.5082C38.6737 24.483 38.6536 24.4532 38.6399 24.4203C38.6262 24.3875 38.6191 24.3522 38.6191 24.3167C38.6191 24.2811 38.6262 24.2459 38.6399 24.213C38.6536 24.1801 38.6737 24.1503 38.6991 24.1251C38.7244 24.1 38.7545 24.0801 38.7875 24.0665C38.8206 24.0529 38.8561 24.046 38.8919 24.0461H46.5836C46.6194 24.046 46.6549 24.0529 46.688 24.0665C46.721 24.0801 46.7511 24.1 46.7765 24.1251C46.8018 24.1503 46.8219 24.1801 46.8356 24.213C46.8493 24.2459 46.8564 24.2811 46.8564 24.3167C46.8564 24.3522 46.8493 24.3875 46.8356 24.4203C46.8219 24.4532 46.8018 24.483 46.7765 24.5082C46.7511 24.5333 46.721 24.5532 46.688 24.5668C46.6549 24.5804 46.6194 24.5873 46.5836 24.5873Z" fill="white"/>
<path d="M46.5836 26.008H38.8919C38.8561 26.008 38.8206 26.0011 38.7875 25.9875C38.7545 25.9739 38.7244 25.954 38.6991 25.9289C38.6737 25.9037 38.6536 25.8739 38.6399 25.841C38.6262 25.8082 38.6191 25.7729 38.6191 25.7374C38.6191 25.7018 38.6262 25.6666 38.6399 25.6337C38.6536 25.6008 38.6737 25.571 38.6991 25.5458C38.7244 25.5207 38.7545 25.5008 38.7875 25.4872C38.8206 25.4736 38.8561 25.4667 38.8919 25.4668H46.5836C46.6194 25.4667 46.6549 25.4736 46.688 25.4872C46.721 25.5008 46.7511 25.5207 46.7765 25.5458C46.8018 25.571 46.8219 25.6008 46.8356 25.6337C46.8493 25.6666 46.8564 25.7018 46.8564 25.7374C46.8564 25.7729 46.8493 25.8082 46.8356 25.841C46.8219 25.8739 46.8018 25.9037 46.7765 25.9289C46.7511 25.954 46.721 25.9739 46.688 25.9875C46.6549 26.0011 46.6194 26.008 46.5836 26.008Z" fill="white"/>
<path d="M46.5836 27.4287H38.8919C38.8561 27.4288 38.8206 27.4218 38.7875 27.4082C38.7545 27.3947 38.7244 27.3747 38.6991 27.3496C38.6737 27.3245 38.6536 27.2946 38.6399 27.2617C38.6262 27.2289 38.6191 27.1937 38.6191 27.1581C38.6191 27.1225 38.6262 27.0873 38.6399 27.0544C38.6536 27.0215 38.6737 26.9917 38.6991 26.9666C38.7244 26.9414 38.7545 26.9215 38.7875 26.9079C38.8206 26.8944 38.8561 26.8874 38.8919 26.8875H46.5836C46.6194 26.8874 46.6549 26.8944 46.688 26.9079C46.721 26.9215 46.7511 26.9414 46.7765 26.9666C46.8018 26.9917 46.8219 27.0215 46.8356 27.0544C46.8493 27.0873 46.8564 27.1225 46.8564 27.1581C46.8564 27.1937 46.8493 27.2289 46.8356 27.2617C46.8219 27.2946 46.8018 27.3245 46.7765 27.3496C46.7511 27.3747 46.721 27.3947 46.688 27.4082C46.6549 27.4218 46.6194 27.4288 46.5836 27.4287Z" fill="white"/>
<path d="M11.912 30.0333H0.612616C0.450197 30.0332 0.294483 29.969 0.179635 29.8548C0.0647869 29.7407 0.000184747 29.5859 0 29.4245V15.2173C0.000184747 15.0559 0.0647869 14.9011 0.179635 14.787C0.294483 14.6728 0.450197 14.6086 0.612616 14.6084H11.912C12.0744 14.6086 12.2301 14.6728 12.345 14.787C12.4598 14.9011 12.5244 15.0559 12.5246 15.2173V29.4245C12.5244 29.5859 12.4598 29.7407 12.345 29.8548C12.2301 29.969 12.0744 30.0332 11.912 30.0333ZM0.612616 14.7437C0.486289 14.7439 0.365178 14.7938 0.275851 14.8826C0.186525 14.9714 0.136278 15.0918 0.136136 15.2173V29.4245C0.136278 29.55 0.186525 29.6704 0.275851 29.7592C0.365178 29.848 0.486289 29.8979 0.612616 29.898H11.912C12.0383 29.8979 12.1594 29.848 12.2487 29.7592C12.3381 29.6704 12.3883 29.55 12.3885 29.4245V15.2173C12.3883 15.0918 12.3381 14.9714 12.2487 14.8826C12.1594 14.7938 12.0383 14.7439 11.912 14.7437H0.612616Z" fill="white"/>
<path d="M10.12 17.9627H6.71661C6.6444 17.9627 6.57514 17.9342 6.52408 17.8835C6.47302 17.8327 6.44434 17.7639 6.44434 17.6921C6.44434 17.6204 6.47302 17.5515 6.52408 17.5008C6.57514 17.45 6.6444 17.4215 6.71661 17.4215H10.12C10.1922 17.4215 10.2615 17.45 10.3126 17.5008C10.3636 17.5515 10.3923 17.6204 10.3923 17.6921C10.3923 17.7639 10.3636 17.8327 10.3126 17.8835C10.2615 17.9342 10.1922 17.9627 10.12 17.9627Z" fill="white"/>
<path d="M10.12 19.3835H6.71661C6.6444 19.3835 6.57514 19.355 6.52408 19.3042C6.47302 19.2535 6.44434 19.1846 6.44434 19.1129C6.44434 19.0411 6.47302 18.9722 6.52408 18.9215C6.57514 18.8707 6.6444 18.8422 6.71661 18.8422H10.12C10.1922 18.8422 10.2615 18.8707 10.3126 18.9215C10.3636 18.9722 10.3923 19.0411 10.3923 19.1129C10.3923 19.1846 10.3636 19.2535 10.3126 19.3042C10.2615 19.355 10.1922 19.3835 10.12 19.3835Z" fill="white"/>
<path d="M4.97017 20.1924H2.48295C2.40174 20.1923 2.32388 20.1602 2.26645 20.1032C2.20903 20.0461 2.17673 19.9687 2.17664 19.888V16.9708C2.17673 16.8901 2.20903 16.8127 2.26645 16.7556C2.32388 16.6986 2.40174 16.6665 2.48295 16.6664H4.97017C5.05138 16.6665 5.12924 16.6986 5.18666 16.7556C5.24409 16.8127 5.27639 16.8901 5.27648 16.9708V19.888C5.27639 19.9687 5.24409 20.0461 5.18666 20.1032C5.12924 20.1602 5.05138 20.1923 4.97017 20.1924Z" fill="white"/>
<path d="M10.0963 22.2925H2.40458C2.36879 22.2926 2.33333 22.2856 2.30024 22.2721C2.26715 22.2585 2.23708 22.2386 2.21175 22.2134C2.18642 22.1883 2.16632 22.1585 2.15261 22.1256C2.13889 22.0927 2.13184 22.0575 2.13184 22.0219C2.13184 21.9863 2.13889 21.9511 2.15261 21.9183C2.16632 21.8854 2.18642 21.8555 2.21175 21.8304C2.23708 21.8053 2.26715 21.7853 2.30024 21.7718C2.33333 21.7582 2.36879 21.7513 2.40458 21.7513H10.0963C10.1321 21.7513 10.1676 21.7582 10.2007 21.7718C10.2337 21.7853 10.2638 21.8053 10.2891 21.8304C10.3145 21.8555 10.3346 21.8854 10.3483 21.9183C10.362 21.9511 10.3691 21.9863 10.3691 22.0219C10.3691 22.0575 10.362 22.0927 10.3483 22.1256C10.3346 22.1585 10.3145 22.1883 10.2891 22.2134C10.2638 22.2386 10.2337 22.2585 10.2007 22.2721C10.1676 22.2856 10.1321 22.2926 10.0963 22.2925Z" fill="white"/>
<path d="M10.0963 23.7133H2.40458C2.36879 23.7133 2.33333 23.7064 2.30024 23.6928C2.26715 23.6792 2.23708 23.6593 2.21175 23.6342C2.18642 23.609 2.16632 23.5792 2.15261 23.5463C2.13889 23.5134 2.13184 23.4782 2.13184 23.4426C2.13184 23.4071 2.13889 23.3718 2.15261 23.339C2.16632 23.3061 2.18642 23.2763 2.21175 23.2511C2.23708 23.226 2.26715 23.2061 2.30024 23.1925C2.33333 23.1789 2.36879 23.172 2.40458 23.172H10.0963C10.1321 23.172 10.1676 23.1789 10.2007 23.1925C10.2337 23.2061 10.2638 23.226 10.2891 23.2511C10.3145 23.2763 10.3346 23.3061 10.3483 23.339C10.362 23.3718 10.3691 23.4071 10.3691 23.4426C10.3691 23.4782 10.362 23.5134 10.3483 23.5463C10.3346 23.5792 10.3145 23.609 10.2891 23.6342C10.2638 23.6593 10.2337 23.6792 10.2007 23.6928C10.1676 23.7064 10.1321 23.7133 10.0963 23.7133Z" fill="white"/>
<path d="M10.0963 25.134H2.40458C2.36879 25.134 2.33333 25.1271 2.30024 25.1135C2.26715 25.0999 2.23708 25.08 2.21175 25.0549C2.18642 25.0297 2.16632 24.9999 2.15261 24.967C2.13889 24.9342 2.13184 24.8989 2.13184 24.8634C2.13184 24.8278 2.13889 24.7926 2.15261 24.7597C2.16632 24.7268 2.18642 24.697 2.21175 24.6718C2.23708 24.6467 2.26715 24.6268 2.30024 24.6132C2.33333 24.5996 2.36879 24.5927 2.40458 24.5927H10.0963C10.1321 24.5927 10.1676 24.5996 10.2007 24.6132C10.2337 24.6268 10.2638 24.6467 10.2891 24.6718C10.3145 24.697 10.3346 24.7268 10.3483 24.7597C10.362 24.7926 10.3691 24.8278 10.3691 24.8634C10.3691 24.8989 10.362 24.9342 10.3483 24.967C10.3346 24.9999 10.3145 25.0297 10.2891 25.0549C10.2638 25.08 10.2337 25.0999 10.2007 25.1135C10.1676 25.1271 10.1321 25.134 10.0963 25.134Z" fill="white"/>
<path d="M10.0963 26.5547H2.40458C2.36879 26.5547 2.33333 26.5478 2.30024 26.5342C2.26715 26.5207 2.23708 26.5007 2.21175 26.4756C2.18642 26.4505 2.16632 26.4206 2.15261 26.3877C2.13889 26.3549 2.13184 26.3197 2.13184 26.2841C2.13184 26.2485 2.13889 26.2133 2.15261 26.1804C2.16632 26.1475 2.18642 26.1177 2.21175 26.0926C2.23708 26.0674 2.26715 26.0475 2.30024 26.0339C2.33333 26.0204 2.36879 26.0134 2.40458 26.0135H10.0963C10.1321 26.0134 10.1676 26.0204 10.2007 26.0339C10.2337 26.0475 10.2638 26.0674 10.2891 26.0926C10.3145 26.1177 10.3346 26.1475 10.3483 26.1804C10.362 26.2133 10.3691 26.2485 10.3691 26.2841C10.3691 26.3197 10.362 26.3549 10.3483 26.3877C10.3346 26.4206 10.3145 26.4505 10.2891 26.4756C10.2638 26.5007 10.2337 26.5207 10.2007 26.5342C10.1676 26.5478 10.1321 26.5547 10.0963 26.5547Z" fill="white"/>
<path d="M10.0963 27.9754H2.40458C2.36879 27.9755 2.33333 27.9685 2.30024 27.9549C2.26715 27.9414 2.23708 27.9214 2.21175 27.8963C2.18642 27.8712 2.16632 27.8413 2.15261 27.8085C2.13889 27.7756 2.13184 27.7404 2.13184 27.7048C2.13184 27.6692 2.13889 27.634 2.15261 27.6011C2.16632 27.5683 2.18642 27.5384 2.21175 27.5133C2.23708 27.4881 2.26715 27.4682 2.30024 27.4546C2.33333 27.4411 2.36879 27.4341 2.40458 27.4342H10.0963C10.1321 27.4341 10.1676 27.4411 10.2007 27.4546C10.2337 27.4682 10.2638 27.4881 10.2891 27.5133C10.3145 27.5384 10.3346 27.5683 10.3483 27.6011C10.362 27.634 10.3691 27.6692 10.3691 27.7048C10.3691 27.7404 10.362 27.7756 10.3483 27.8085C10.3346 27.8413 10.3145 27.8712 10.2891 27.8963C10.2638 27.9214 10.2337 27.9414 10.2007 27.9549C10.1676 27.9685 10.1321 27.9755 10.0963 27.9754Z" fill="white"/>
<path d="M16.1836 38.2677V35.3505C16.1837 35.2698 16.216 35.1924 16.2734 35.1354C16.3308 35.0783 16.4087 35.0462 16.4899 35.0461H18.9771C19.0583 35.0462 19.1362 35.0783 19.1936 35.1354C19.251 35.1924 19.2833 35.2698 19.2834 35.3505V38.2677C19.2833 38.3484 19.251 38.4258 19.1936 38.4829C19.1362 38.5399 19.0583 38.5721 18.9771 38.5721H16.4899C16.4087 38.5721 16.3308 38.5399 16.2734 38.4829C16.216 38.4258 16.1837 38.3484 16.1836 38.2677Z" fill="#E6E6E6"/>
<path d="M17.0796 37.2963V34.3791C17.0797 34.2984 17.112 34.221 17.1694 34.1639C17.2268 34.1069 17.3047 34.0748 17.3859 34.0747H19.8731C19.9543 34.0748 20.0322 34.1069 20.0896 34.1639C20.147 34.221 20.1793 34.2984 20.1794 34.3791V37.2963C20.1793 37.377 20.147 37.4544 20.0896 37.5114C20.0322 37.5685 19.9543 37.6006 19.8731 37.6007H17.3859C17.3047 37.6006 17.2268 37.5685 17.1694 37.5114C17.112 37.4544 17.0797 37.377 17.0796 37.2963Z" fill="white"/>
<path d="M28.229 36.3629C28.1354 36.3091 28.0548 36.2356 27.9929 36.1476C27.931 36.0595 27.8892 35.959 27.8706 35.8532C27.852 35.7474 27.8569 35.6388 27.8851 35.5351C27.9133 35.4314 27.964 35.335 28.0337 35.2529L27.2627 29.652L28.8687 29.7303L29.1208 35.1934C29.2519 35.3189 29.3321 35.4878 29.3462 35.6682C29.3604 35.8485 29.3075 36.0277 29.1975 36.1719C29.0876 36.316 28.9283 36.4151 28.7498 36.4503C28.5713 36.4855 28.386 36.4544 28.229 36.3629Z" fill="white"/>
<path d="M29.0893 29.805C29.0564 29.8435 29.0143 29.8731 28.9667 29.8911L27.5235 30.4386C27.451 30.4661 27.3707 30.4649 27.299 30.4353C27.2274 30.4058 27.1699 30.35 27.1383 30.2796L25.8599 27.4239C25.7371 27.159 25.7162 26.8587 25.8011 26.5795C25.8639 26.3803 25.9796 26.2015 26.136 26.0622C26.2924 25.9228 26.4838 25.8279 26.6899 25.7876C26.8484 25.7552 27.0121 25.7575 27.1696 25.7943C27.3584 25.8362 27.5337 25.9241 27.6796 26.0502C27.8256 26.1763 27.9376 26.3366 28.0055 26.5166L29.1422 29.5029C29.1613 29.5533 29.1665 29.608 29.1572 29.6611C29.1479 29.7142 29.1245 29.7639 29.0893 29.805Z" fill="white"/>
<path d="M21.5684 50.0334H20.5698L20.2078 46.1873L21.5685 46.2054L21.5684 50.0334Z" fill="white"/>
<path d="M19.8566 49.7498H21.7824V50.9549H18.644C18.644 50.7967 18.6754 50.64 18.7363 50.4938C18.7973 50.3476 18.8866 50.2147 18.9992 50.1028C19.1118 49.9909 19.2454 49.9021 19.3926 49.8416C19.5397 49.781 19.6973 49.7498 19.8566 49.7498Z" fill="white"/>
<path d="M26.2109 50.0334H25.2123L24.7373 46.2054H26.2111L26.2109 50.0334Z" fill="white"/>
<path d="M24.4991 49.7498H26.4249V50.9549H23.2866C23.2866 50.7967 23.318 50.64 23.3789 50.4938C23.4399 50.3476 23.5292 50.2147 23.6418 50.1028C23.7544 49.9909 23.888 49.9021 24.0351 49.8416C24.1822 49.781 24.3399 49.7498 24.4991 49.7498Z" fill="white"/>
<path d="M26.3367 48.6714L24.7684 48.556C24.6792 48.5494 24.5956 48.5106 24.5331 48.4469C24.4707 48.3832 24.4338 48.2991 24.4294 48.2103L24.0797 41.0274C24.0764 40.9584 24.0478 40.8931 23.9994 40.8436C23.951 40.7941 23.8861 40.7639 23.8169 40.7586C23.7476 40.7533 23.6788 40.7733 23.6234 40.8148C23.5679 40.8564 23.5296 40.9166 23.5157 40.9842L22.0568 48.06C22.0388 48.1471 21.9894 48.2246 21.9179 48.278C21.8464 48.3314 21.7577 48.357 21.6686 48.35L20.2509 48.2373C20.2023 48.2334 20.155 48.22 20.1117 48.1977C20.0684 48.1754 20.03 48.1448 19.9987 48.1077C19.9675 48.0705 19.944 48.0275 19.9297 47.9812C19.9154 47.9348 19.9105 47.8862 19.9154 47.838L21.2306 34.7661C21.2357 34.715 21.2517 34.6655 21.2774 34.621C21.3031 34.5765 21.338 34.5378 21.3798 34.5076C21.4216 34.4774 21.4693 34.4564 21.5199 34.4458C21.5705 34.4353 21.6227 34.4354 21.6732 34.4464L26.6747 35.527C26.7575 35.545 26.8315 35.591 26.8841 35.6572C26.9367 35.7233 26.9646 35.8055 26.9632 35.8897L26.7303 48.315C26.7285 48.4103 26.6892 48.501 26.6208 48.5678C26.5525 48.6347 26.4605 48.6722 26.3647 48.6725C26.3554 48.6725 26.3461 48.6721 26.3367 48.6714Z" fill="white"/>
<path d="M24.9646 23.8363C26.0694 23.8363 26.9651 22.9461 26.9651 21.848C26.9651 20.75 26.0694 19.8598 24.9646 19.8598C23.8598 19.8598 22.9641 20.75 22.9641 21.848C22.9641 22.9461 23.8598 23.8363 24.9646 23.8363Z" fill="white"/>
<path d="M21.8607 35.7741C21.6683 35.6026 21.5156 35.3918 21.4131 35.1561C21.3105 34.9204 21.2605 34.6655 21.2666 34.4087C21.2666 31.551 23.7554 25.1666 23.8334 24.9673C23.841 24.9194 23.9067 24.8986 24.2512 24.6673C24.5959 24.4358 25.0929 24.4003 25.7286 24.5616C25.7932 24.5781 25.8521 24.6118 25.8987 24.6592C25.9454 24.7065 25.9781 24.7657 25.9933 24.8303L26.1116 25.0001C26.1219 25.0431 26.1422 25.0832 26.1709 25.117C26.1996 25.1509 26.2359 25.1775 26.2768 25.1949C26.7894 25.4095 28.4188 26.3993 27.8636 30.1242C27.3478 33.5843 27.1385 35.6193 27.0725 36.3336C27.0647 36.4184 27.0273 36.4978 26.9667 36.5579C26.9061 36.618 26.8262 36.6551 26.7409 36.6627C26.4895 36.6851 26.0582 36.7148 25.5444 36.7148C24.3535 36.7148 22.7201 36.5552 21.8607 35.7741Z" fill="white"/>
<path d="M19.4703 34.7154C19.4227 34.6189 19.397 34.5133 19.3949 34.4059C19.3929 34.2984 19.4145 34.1919 19.4584 34.0937C19.5023 33.9955 19.5673 33.9081 19.6488 33.8376C19.7304 33.767 19.8265 33.7151 19.9304 33.6855L22.4303 28.6078L23.7199 29.5622L20.8664 34.2383C20.9049 34.415 20.8768 34.5997 20.7874 34.7573C20.6981 34.9149 20.5537 35.0344 20.3816 35.0932C20.2095 35.152 20.0217 35.146 19.8537 35.0764C19.6857 35.0068 19.5493 34.8783 19.4703 34.7154Z" fill="white"/>
<path d="M23.8611 29.7463C23.8122 29.76 23.7605 29.7613 23.711 29.7499L22.2056 29.4052C22.13 29.3879 22.064 29.3425 22.021 29.2782C21.9781 29.214 21.9616 29.1358 21.975 29.0598L22.5144 25.9806C22.5609 25.6927 22.712 25.4317 22.939 25.2469C23.1028 25.1162 23.2991 25.0319 23.5071 25.0028C23.7151 24.9737 23.9272 25.0009 24.121 25.0815C24.2708 25.1424 24.4054 25.235 24.5155 25.3528C24.6488 25.4921 24.7451 25.6622 24.7956 25.8477C24.8461 26.0333 24.8492 26.2284 24.8047 26.4155L24.0744 29.5247C24.0619 29.5772 24.0356 29.6255 23.9981 29.6644C23.9606 29.7034 23.9133 29.7316 23.8611 29.7463Z" fill="white"/>
<path d="M24.4961 23.6445C24.3987 23.5458 24.3268 23.4251 24.2866 23.2928C24.2463 23.1605 24.2389 23.0204 24.2648 22.8846C24.3346 22.522 24.3756 22.2847 24.3833 22.1984C24.4099 21.9031 24.1096 21.6641 23.8124 21.626C23.8008 21.6245 23.7912 21.6236 23.7832 21.6229C23.7907 21.6303 23.7989 21.6378 23.806 21.6445C23.8624 21.6972 23.9327 21.7628 23.916 21.8305C23.9059 21.8713 23.8685 21.9002 23.8014 21.9188C23.3367 22.0481 22.9787 21.9294 22.6749 21.5451C22.5895 21.4359 22.5308 21.3085 22.5035 21.1729C22.3947 20.6423 22.6846 20.1899 22.947 19.9039C23.1634 19.6681 23.5142 19.3819 23.9565 19.3574C24.3005 19.3383 24.7096 19.535 24.832 19.8896C24.8898 19.8045 24.9666 19.734 25.0566 19.6836C25.1465 19.6332 25.247 19.6043 25.3501 19.5992C25.585 19.5942 25.8161 19.6581 26.0146 19.7829C26.9846 20.3352 27.4015 21.6507 26.925 22.6557C26.6252 23.2879 25.9757 23.7585 25.23 23.884C25.1833 23.8918 25.1361 23.8958 25.0887 23.8958C24.978 23.8957 24.8685 23.8733 24.7667 23.8301C24.6648 23.7869 24.5728 23.7238 24.4961 23.6445Z" fill="white"/>
<path d="M15.1151 51H30.9978C31.0194 51 31.0401 50.9915 31.0554 50.9763C31.0707 50.9611 31.0792 50.9405 31.0792 50.9191C31.0792 50.8976 31.0707 50.877 31.0554 50.8618C31.0401 50.8466 31.0194 50.8381 30.9978 50.8381H15.1151C15.0935 50.8381 15.0728 50.8466 15.0575 50.8618C15.0423 50.877 15.0337 50.8976 15.0337 50.9191C15.0337 50.9405 15.0423 50.9611 15.0575 50.9763C15.0728 50.9915 15.0935 51 15.1151 51Z" fill="white"/>
</g>
<defs>
<clipPath id="clip0">
<rect width="49" height="51" fill="white"/>
</clipPath>
</defs>
</svg>
