<svg width="52" height="41" viewBox="0 0 52 41" fill="none" xmlns="http://www.w3.org/2000/svg">
<path d="M12.7133 40.9206H8.63122C8.49329 40.9204 8.36105 40.866 8.26352 40.7692C8.16598 40.6724 8.11112 40.5412 8.11096 40.4043V31.9856C8.11112 31.8488 8.16598 31.7175 8.26352 31.6208C8.36105 31.524 8.49329 31.4695 8.63122 31.4694H12.7133C12.8512 31.4695 12.9834 31.524 13.081 31.6208C13.1785 31.7175 13.2334 31.8488 13.2335 31.9856V40.4043C13.2334 40.5412 13.1785 40.6724 13.081 40.7692C12.9834 40.866 12.8512 40.9204 12.7133 40.9206Z" fill="white"/>
<path d="M22.3982 41H18.3161C18.157 40.9998 18.0044 40.937 17.8918 40.8254C17.7793 40.7137 17.716 40.5623 17.7158 40.4043V24.0435C17.716 23.8856 17.7793 23.7341 17.8918 23.6225C18.0044 23.5108 18.157 23.448 18.3161 23.4478H22.3982C22.5573 23.448 22.7099 23.5108 22.8224 23.6225C22.935 23.7341 22.9983 23.8856 22.9985 24.0435V40.4043C22.9983 40.5623 22.935 40.7137 22.8224 40.8254C22.7099 40.937 22.5573 40.9998 22.3982 41ZM18.3161 23.6067C18.1994 23.6068 18.0875 23.6529 18.005 23.7347C17.9225 23.8166 17.876 23.9277 17.8759 24.0435V40.4043C17.876 40.5202 17.9225 40.6312 18.005 40.7131C18.0875 40.795 18.1994 40.841 18.3161 40.8412H22.3982C22.5149 40.841 22.6268 40.795 22.7093 40.7131C22.7918 40.6312 22.8382 40.5202 22.8384 40.4043V24.0435C22.8382 23.9277 22.7918 23.8166 22.7093 23.7347C22.6268 23.6529 22.5149 23.6068 22.3982 23.6067H18.3161Z" fill="white"/>
<path d="M32.083 41H28.0009C27.8418 40.9998 27.6892 40.937 27.5767 40.8253C27.4641 40.7137 27.4008 40.5622 27.4006 40.4043V13.6392C27.4008 13.4813 27.4641 13.3299 27.5767 13.2182C27.6892 13.1065 27.8418 13.0437 28.0009 13.0435H32.083C32.2421 13.0437 32.3947 13.1065 32.5072 13.2182C32.6198 13.3299 32.6831 13.4813 32.6833 13.6392V40.4043C32.6831 40.5622 32.6198 40.7137 32.5072 40.8253C32.3947 40.937 32.2421 40.9998 32.083 41ZM28.0009 13.2024C27.8842 13.2025 27.7723 13.2486 27.6898 13.3305C27.6073 13.4124 27.5608 13.5234 27.5607 13.6392V40.4043C27.5608 40.5201 27.6073 40.6312 27.6898 40.7131C27.7723 40.7949 27.8842 40.841 28.0009 40.8411H32.083C32.1997 40.841 32.3116 40.7949 32.3941 40.7131C32.4766 40.6312 32.5231 40.5201 32.5232 40.4043V13.6392C32.5231 13.5234 32.4766 13.4124 32.3941 13.3305C32.3116 13.2486 32.1997 13.2025 32.083 13.2024H28.0009Z" fill="white"/>
<path d="M41.8583 40.9603H37.7762C37.6383 40.9601 37.5061 40.9057 37.4085 40.8089C37.311 40.7121 37.2561 40.5809 37.256 40.444V2.71874C37.2561 2.58188 37.311 2.45066 37.4085 2.35388C37.5061 2.2571 37.6383 2.20266 37.7762 2.2025H41.8583C41.9962 2.20266 42.1285 2.2571 42.226 2.35388C42.3235 2.45066 42.3784 2.58188 42.3785 2.71874V40.444C42.3784 40.5809 42.3235 40.7121 42.226 40.8089C42.1285 40.9057 41.9962 40.9601 41.8583 40.9603Z" fill="white"/>
<path d="M16.4705 17.6601C16.4853 17.5443 16.4744 17.4266 16.4384 17.3155C16.4024 17.2043 16.3423 17.1023 16.2623 17.0167C16.1824 16.931 16.0844 16.8638 15.9754 16.8198C15.8665 16.7758 15.7491 16.7561 15.6315 16.7619L14.2087 14.1721L13.8885 15.284L14.8633 17.6575C14.8864 17.8528 14.9808 18.0329 15.1287 18.1636C15.2766 18.2944 15.4677 18.3668 15.6658 18.3672C15.8639 18.3675 16.0552 18.2957 16.2036 18.1653C16.3519 18.035 16.4469 17.8553 16.4705 17.6601Z" fill="white"/>
<path d="M5.50806 27.886L6.30053 28.4601L8.90944 25.7L7.73973 24.8526L5.50806 27.886Z" fill="white"/>
<path d="M7.29175 30.2976L4.8009 28.4932L5.50349 27.5383L7.03196 28.6455C7.2872 28.8304 7.45796 29.1083 7.50668 29.4182C7.5554 29.728 7.47808 30.0443 7.29175 30.2976Z" fill="white"/>
<path d="M9.70096 30.925L10.6823 30.9249L11.149 27.1692L9.70081 27.1693L9.70096 30.925Z" fill="white"/>
<path d="M12.5747 31.829L9.49071 31.8291L9.49065 30.6468L11.3831 30.6467C11.6991 30.6467 12.0022 30.7712 12.2257 30.993C12.4491 31.2147 12.5747 31.5154 12.5747 31.829Z" fill="white"/>
<path d="M12.648 16.2767C12.648 16.2767 13.1282 20.8832 11.9276 24.06L11.0472 30.0961H9.52642L9.6865 22.9481L9.12622 16.5944C9.12622 16.5944 10.2468 13.7352 12.648 16.2767Z" fill="white"/>
<path d="M7.44544 16.5944L9.04624 22.0745L5.92468 26.9986L7.48546 28.3091L11.0472 22.7893L10.0067 16.0384L7.44544 16.5944Z" fill="white"/>
<path d="M11.5278 4.3058C12.6135 4.3058 13.4936 3.43245 13.4936 2.35512C13.4936 1.27779 12.6135 0.404434 11.5278 0.404434C10.442 0.404434 9.56189 1.27779 9.56189 2.35512C9.56189 3.43245 10.442 4.3058 11.5278 4.3058Z" fill="white"/>
<path d="M9.88664 5.03856C9.88664 5.03856 11.0872 4.24434 12.4479 5.99162L12.8081 16.9915C12.8081 16.9915 11.7676 15.5619 9.6065 16.9121C7.44542 18.2623 6.96518 16.7533 6.96518 16.7533C6.96518 16.7533 5.44442 5.39595 9.88664 5.03856Z" fill="white"/>
<path d="M12.3511 5.96389C12.6964 5.98241 13.0226 6.12698 13.2669 6.36978C13.5113 6.61259 13.6565 6.93648 13.6747 7.27913L13.9286 12.0674L15.6095 16.5944L14.649 17.3886L11.5274 11.988L10.8883 7.54883C10.8591 7.34537 10.8756 7.13799 10.9368 6.94163C10.9979 6.74527 11.1022 6.5648 11.2421 6.41323C11.382 6.26165 11.554 6.14274 11.7457 6.06504C11.9375 5.98734 12.1442 5.9528 12.3511 5.96389Z" fill="white"/>
<path d="M10.0833 3.81831C10.4047 4.15801 11.0015 3.97565 11.0434 3.51158C11.0467 3.47555 11.0465 3.43929 11.0427 3.40331C11.0211 3.19774 10.9014 3.01111 10.9301 2.79407C10.9366 2.74005 10.9569 2.68857 10.989 2.64451C11.2451 2.30421 11.8463 2.79671 12.088 2.48865C12.2362 2.29976 12.062 2.00236 12.1757 1.79124C12.3258 1.5126 12.7704 1.65005 13.0492 1.49745C13.3594 1.32767 13.3409 0.855386 13.1367 0.568122C12.8876 0.217793 12.451 0.030853 12.0198 0.0039092C11.5886 -0.0230346 11.1604 0.0926303 10.7578 0.248302C10.3004 0.425174 9.84686 0.669619 9.56538 1.0687C9.22308 1.55402 9.19014 2.2065 9.36133 2.77399C9.46547 3.1192 9.82088 3.54092 10.0833 3.81831Z" fill="white"/>
<path d="M51.9047 40.9663H0.0952696C0.0700417 40.9662 0.0458714 40.9562 0.0280583 40.9385C0.0102453 40.9208 0.000244141 40.8968 0.000244141 40.8717C0.000244141 40.8467 0.0102453 40.8227 0.0280583 40.805C0.0458714 40.7872 0.0700417 40.7772 0.0952696 40.7772H51.9047C51.9299 40.7772 51.9541 40.7872 51.9719 40.805C51.9897 40.8227 51.9997 40.8467 51.9997 40.8717C51.9997 40.8968 51.9897 40.9208 51.9719 40.9385C51.9541 40.9562 51.9299 40.9662 51.9047 40.9663Z" fill="white"/>
</svg>
